<svg width="171" height="103" viewBox="0 0 171 103" fill="none" xmlns="http://www.w3.org/2000/svg">
<path d="M64.8701 14.6443C61.3952 14.1083 57.5403 13.7675 54.1795 13.7586C49.1938 13.7437 45.7245 12.5957 43.1923 10.2249L42.8506 10.5899L43.1923 10.2249L42.1568 9.25538L42.6167 9.34231L42.6168 9.34232C43.8179 9.56923 49.6423 10.3725 55.5483 11.1271C67.0562 12.5975 70.9784 13.7038 75.4067 16.6168C76.2833 17.1934 76.9534 17.5823 77.3401 17.7155C77.4308 17.7468 77.5731 17.7891 77.7221 17.7777C77.8023 17.7716 77.9351 17.7461 78.0556 17.6434C78.1893 17.5295 78.2408 17.3785 78.2482 17.2529C78.2597 17.0566 78.1676 16.8924 78.1262 16.8218C78.0691 16.7245 77.9921 16.6207 77.9047 16.5145L77.6163 16.7516L77.9047 16.5145C77.5379 16.0683 76.915 15.5736 76.1673 15.0759C75.4094 14.5714 74.4871 14.0404 73.4896 13.5272C71.4974 12.5021 69.1742 11.5318 67.2157 10.9799L67.0801 11.4612L67.2157 10.9799C65.5919 10.5224 59.9043 9.67013 54.5917 9.07843C43.5721 7.85102 38.6556 5.88776 35.6268 1.81693L35.6268 1.81692C35.2867 1.35986 35.0255 0.995019 34.8365 0.708795C35.1603 0.799542 35.6018 0.895721 36.2041 1.00685C37.0651 1.16575 38.285 1.36035 40.0145 1.61305C43.4746 2.11859 48.996 2.85974 57.8121 4.01677C64.2981 4.86797 69.5941 6.96453 73.6765 10.242C77.756 13.5171 80.6524 17.9946 82.3056 23.6583C82.6024 24.6749 82.8153 25.516 82.9478 26.1657C82.9557 26.2043 82.9632 26.242 82.9705 26.279C82.9699 26.2778 82.9692 26.2767 82.9686 26.2755L82.8598 26.0722L82.8542 26.071C82.0654 24.7179 80.8514 23.7939 79.0308 23.21C77.1449 22.6052 74.5899 22.3586 71.1372 22.3586C68.4248 22.3586 66.8018 22.3006 65.683 22.0992C64.6039 21.9049 64.0132 21.5809 63.3642 21.0218C63.3642 21.0218 63.3642 21.0218 63.3642 21.0218L62.8183 20.5514L67.0435 20.8599L67.0436 20.8599C70.203 21.0903 73.5613 21.427 74.5149 21.6038C74.9039 21.676 75.2151 21.7294 75.4411 21.7561C75.5523 21.7691 75.6613 21.7781 75.7564 21.7759C75.8036 21.7748 75.864 21.7708 75.9273 21.7567C75.9811 21.7448 76.0955 21.7136 76.199 21.6186C76.3315 21.4971 76.3909 21.3222 76.3666 21.1504C76.3476 21.016 76.2831 20.9212 76.2506 20.8781C76.1822 20.7871 76.0898 20.7123 76.0208 20.66C75.8689 20.5449 75.64 20.4004 75.3603 20.2307L75.3601 20.2306C75.2135 20.1418 75.0152 20.0703 74.8106 20.0092C74.5953 19.9449 74.3326 19.8807 74.0325 19.8171C73.4318 19.6896 72.6573 19.5594 71.7659 19.4334C69.9817 19.1812 67.7057 18.9429 65.3657 18.7787C61.3425 18.4964 58.1437 18.0229 55.963 17.4231C54.8688 17.1222 54.0619 16.7976 53.5396 16.4686C53.1652 16.2328 52.9964 16.0344 52.9277 15.8861C52.9825 15.8712 53.0534 15.8562 53.1421 15.8433C53.5054 15.7907 54.0389 15.7924 54.6484 15.875L54.6486 15.875C55.9391 16.0497 59.902 16.4892 63.4539 16.8518C66.9968 17.2137 71.2923 18.0002 72.9904 18.5852C74.0976 18.9667 74.9417 19.2231 75.5159 19.361C75.7982 19.4288 76.0392 19.474 76.2217 19.4854C76.3054 19.4906 76.4247 19.4926 76.5414 19.4604C76.6011 19.4439 76.6999 19.4079 76.7902 19.3228C76.8947 19.2242 76.9594 19.0854 76.9602 18.9321C76.961 18.7994 76.9137 18.6974 76.8808 18.6404C76.846 18.5799 76.8052 18.5317 76.772 18.4966C76.7058 18.4267 76.6248 18.3625 76.5448 18.3055C76.3815 18.189 76.1534 18.054 75.8713 17.9032C75.3031 17.5993 74.4628 17.2034 73.3559 16.7272C71.4649 15.9136 68.3341 15.1786 64.8701 14.6443ZM77.2752 17.3503C77.2749 17.3501 77.2727 17.346 77.2698 17.3386C77.2742 17.3468 77.2756 17.3505 77.2752 17.3503ZM34.4961 0.0968485C34.4963 0.0969605 34.497 0.0997652 34.4978 0.104926C34.4963 0.0993171 34.4959 0.0967365 34.4961 0.0968485ZM52.787 15.9399C52.787 15.9399 52.7878 15.9393 52.7898 15.9381C52.788 15.9394 52.7871 15.9399 52.787 15.9399ZM108.693 4.72599L108.584 4.23809L108.693 4.72599C110.278 4.37077 115.927 3.56708 121.255 2.94255C126.571 2.31953 132.235 1.51139 133.833 1.14353C134.6 0.966831 135.328 0.843266 135.878 0.785598C135.955 0.777542 136.028 0.770879 136.095 0.765552C136.011 0.873662 135.912 0.994929 135.799 1.12826C135.293 1.72499 134.543 2.51397 133.672 3.34785L134.015 3.7057L133.672 3.34785C131.769 5.17194 130.16 6.28144 127.6 7.10624C125.006 7.94186 121.429 8.48768 115.572 9.13673C110.649 9.68231 104.931 10.6139 102.866 11.2159C101.115 11.7266 98.4562 12.9724 96.2507 14.189C95.1444 14.7993 94.1353 15.4115 93.3974 15.9322C93.0302 16.1912 92.7165 16.4371 92.4895 16.6562C92.3766 16.7652 92.2723 16.8796 92.1928 16.9963C92.122 17.1002 92.0256 17.2702 92.0256 17.4774C92.0256 17.6264 92.0883 17.796 92.2431 17.91C92.3692 18.0029 92.5006 18.016 92.5636 18.0181C92.6914 18.0225 92.8141 17.9875 92.8916 17.9624C93.0685 17.9052 93.2955 17.8008 93.5449 17.6718C94.053 17.4091 94.7409 16.9987 95.489 16.5048C99.7196 13.7123 103.761 12.5847 115.168 11.1273C121.069 10.3733 126.822 9.56118 127.932 9.32228C128.503 9.19955 128.894 9.16672 129.141 9.18499C129.198 9.18915 129.241 9.19536 129.273 9.20182C129.266 9.21751 129.257 9.2355 129.245 9.25598C129.155 9.41789 128.978 9.63713 128.701 9.89843C127.59 10.9463 125.276 12.3038 122.859 12.9185C121.338 13.3049 116.426 13.8507 111.934 14.1197C107.696 14.3735 104.224 14.7937 101.495 15.3913C98.7768 15.9866 96.7469 16.7678 95.4343 17.7752C95.1231 18.014 94.8633 18.2206 94.7136 18.375C94.6741 18.4157 94.6299 18.4652 94.5917 18.5209C94.5619 18.5642 94.493 18.6708 94.4798 18.8169C94.4722 18.9008 94.4825 19.0057 94.5364 19.1108C94.5904 19.2159 94.6699 19.2857 94.7431 19.3287C94.8707 19.4034 94.9987 19.4091 95.0527 19.4099C95.178 19.4118 95.3204 19.3841 95.4483 19.354C95.588 19.3211 95.7584 19.2731 95.9577 19.2124C96.3569 19.0908 96.9 18.9092 97.5993 18.6704C99.2619 18.1038 103.572 17.3024 107.17 16.903C110.775 16.5027 114.779 16.0361 116.066 15.8659C116.675 15.7854 117.209 15.7851 117.572 15.8388C117.661 15.852 117.732 15.8672 117.787 15.8823C117.718 16.0265 117.55 16.2216 117.178 16.4549C116.655 16.7825 115.846 17.1072 114.749 17.4106C112.561 18.0152 109.347 18.5024 105.29 18.8104C102.922 18.99 100.63 19.24 98.842 19.4987C97.9487 19.628 97.1755 19.7602 96.5793 19.8881C96.2815 19.9519 96.0216 20.0161 95.81 20.0799C95.6106 20.14 95.4131 20.2116 95.2686 20.3025C95.0009 20.471 94.7854 20.6103 94.6391 20.7181C94.5695 20.7694 94.492 20.8304 94.4306 20.8959C94.4018 20.9266 94.3513 20.9843 94.3134 21.0646C94.2766 21.1427 94.2141 21.3279 94.3167 21.5313C94.4128 21.722 94.5834 21.7844 94.6499 21.8035C94.7266 21.8256 94.7964 21.8286 94.8382 21.8288C94.9259 21.8293 95.0227 21.8168 95.1109 21.8024C95.2944 21.7725 95.5499 21.7158 95.8655 21.6417C97.0446 21.365 100.493 21.0376 103.693 20.8323C105.283 20.7303 106.791 20.6597 107.899 20.6405C108.272 20.634 108.595 20.6335 108.858 20.6391C108.821 20.6623 108.781 20.6863 108.738 20.7111C108.31 20.9543 107.646 21.1957 106.747 21.4172C104.958 21.8582 102.358 22.1924 99.1598 22.3575C95.6139 22.5404 93.697 22.6491 92.3677 23.0319C90.9751 23.433 90.2198 24.1359 88.9819 25.3358L89.3298 25.6948L88.9818 25.3358C88.4473 25.8539 87.9535 26.3067 87.5512 26.6536C87.6168 26.4348 87.6934 26.1932 87.7797 25.9324C88.0933 24.985 88.5286 23.8045 89.0115 22.5797C89.9815 20.1196 91.1251 17.5286 91.8455 16.2993C95.1735 10.6207 101.321 6.37753 108.693 4.72599ZM93.0053 17.5824C93.0053 17.5821 93.0062 17.5803 93.0082 17.5768C93.0065 17.5807 93.0053 17.5826 93.0053 17.5824ZM136.678 0.765167C136.677 0.765311 136.674 0.764505 136.667 0.762312C136.675 0.763926 136.678 0.765022 136.678 0.765167ZM129.304 9.11338C129.304 9.11335 129.304 9.11481 129.304 9.1178C129.304 9.11494 129.304 9.11342 129.304 9.11338ZM117.928 15.9366C117.928 15.9366 117.926 15.936 117.925 15.9346C117.927 15.936 117.928 15.9366 117.928 15.9366ZM35.2276 2.11394L35.2257 2.11539L35.2276 2.11394Z" fill="url(#paint0_linear)" stroke="#CAA971"/>
<path d="M15.8364 54.5195C16.4116 54.5195 16.6992 54.77 16.6992 55.271V72.2485C16.6992 72.7495 16.4116 73 15.8364 73H3.08936C2.55127 72.9258 2.28223 72.6753 2.28223 72.2485V35.4268C2.28223 35.0186 2.55127 34.7773 3.08936 34.7031H15.4468C16.022 34.7031 16.3096 34.9443 16.3096 35.4268V44.7783C16.3096 45.2793 16.022 45.5298 15.4468 45.5298H12.0791C10.7061 45.5298 9.50928 45.9473 8.48877 46.7822C7.43115 47.6172 6.90234 48.7026 6.90234 50.0386C6.90234 51.356 7.43115 52.4321 8.48877 53.2671C9.50928 54.1021 10.7061 54.5195 12.0791 54.5195H15.8364ZM6.90234 70.8291C6.90234 71.2559 7.16211 71.5063 7.68164 71.5806H11.2163C11.7915 71.5806 12.0791 71.3301 12.0791 70.8291V56.6904C12.0791 56.208 11.7915 55.9668 11.2163 55.9668C9.62061 55.9668 8.18262 55.3174 6.90234 54.0186V70.8291ZM11.2163 44.0547C11.7915 44.0547 12.0791 43.8042 12.0791 43.3032V36.874C12.0791 36.373 11.7915 36.1226 11.2163 36.1226H7.68164C7.16211 36.1968 6.90234 36.4473 6.90234 36.874V45.9751C8.1084 44.6948 9.54639 44.0547 11.2163 44.0547ZM31.222 73.334C30.0159 73.334 28.9583 73.0742 28.0491 72.5547C26.9729 71.9053 26.4349 71.0054 26.4349 69.855C26.4349 69.1685 26.7039 68.5654 27.242 68.0459C27.743 67.5078 28.3553 67.2388 29.0789 67.2388C29.8025 67.2388 30.4334 67.48 30.9715 67.9624C31.5281 68.4263 31.8064 69.02 31.8064 69.7437C31.8064 70.6899 31.4817 71.4507 30.8323 72.0259H31.4168C32.2889 71.4136 32.7249 70.4858 32.7249 69.2427C32.7249 68.2964 32.1683 66.5244 31.055 63.9268C29.7005 60.6982 28.7171 58.1191 28.1048 56.1895C26.9915 52.6455 26.4349 49.2778 26.4349 46.0864C26.4349 37.8853 28.8284 33.7847 33.6155 33.7847C38.4212 33.7847 40.824 37.4307 40.824 44.7227C40.824 45.2607 40.555 45.5298 40.0169 45.5298H37.0389C36.5193 45.5298 36.2596 45.2607 36.2596 44.7227C36.2596 38.6553 35.3782 35.6216 33.6155 35.6216C31.9085 35.6216 31.055 39.1099 31.055 46.0864C31.055 46.7358 31.1756 48.2573 31.4168 50.6509C31.7879 49.7417 32.428 49.0088 33.3372 48.4521C34.2464 47.877 35.2205 47.5894 36.2596 47.5894C37.6512 47.5894 38.7737 48.0811 39.6272 49.0645C40.4251 50.085 40.824 51.3188 40.824 52.7661V55.3823C40.824 55.9204 40.555 56.1895 40.0169 56.1895H37.0389C36.5193 56.1895 36.2596 55.9204 36.2596 55.3823V53.3228C36.2596 52.729 36.0462 52.2188 35.6194 51.792C35.2112 51.3838 34.701 51.1797 34.0887 51.1797C32.6785 51.1797 31.9734 51.894 31.9734 53.3228C31.9734 54.3989 32.3909 56.4492 33.2259 59.4736C34.0608 62.4795 34.4783 64.7803 34.4783 66.376C34.4783 69.0479 33.7732 70.894 32.3631 71.9146C34.3484 71.1167 35.573 69.4653 36.0369 66.9604C36.1854 66.0884 36.2596 63.6392 36.2596 59.6128C36.2596 59.0376 36.5193 58.75 37.0389 58.75H40.0169C40.555 58.75 40.824 59.0376 40.824 59.6128C40.824 62.4146 39.9427 65.2998 38.18 68.2686C36.1761 71.6455 33.8567 73.334 31.222 73.334ZM60.1617 53.6289V35.4268C60.1617 35.0186 60.4215 34.7773 60.941 34.7031H63.919C64.4942 34.7031 64.7818 34.9443 64.7818 35.4268V72.2485C64.7818 72.7495 64.4942 73 63.919 73H60.941C60.4215 72.9258 60.1617 72.6753 60.1617 72.2485V57.6646C60.1617 56.3286 59.6329 55.2432 58.5753 54.4082C57.5362 53.5732 56.3302 53.1558 54.9571 53.1558H51.1441C50.6061 53.0815 50.337 52.8403 50.337 52.4321V35.4268C50.337 35.0186 50.6061 34.7773 51.1441 34.7031H54.1222C54.6788 34.7031 54.9571 34.9443 54.9571 35.4268V50.9849C54.9571 51.4116 55.2262 51.6621 55.7643 51.7363C57.4342 51.7363 58.9 52.3672 60.1617 53.6289ZM79.3046 73.334C78.0985 73.334 77.0409 73.0742 76.1317 72.5547C75.0556 71.9053 74.5175 71.0054 74.5175 69.855C74.5175 69.1685 74.7865 68.5654 75.3246 68.0459C75.8256 67.5078 76.4379 67.2388 77.1615 67.2388C77.8852 67.2388 78.516 67.48 79.0541 67.9624C79.6107 68.4263 79.8891 69.02 79.8891 69.7437C79.8891 70.6899 79.5644 71.4507 78.9149 72.0259H79.4994C80.3715 71.4136 80.8075 70.4858 80.8075 69.2427C80.8075 68.2964 80.2509 66.5244 79.1376 63.9268C77.7831 60.6982 76.7997 58.1191 76.1874 56.1895C75.0741 52.6455 74.5175 49.2778 74.5175 46.0864C74.5175 37.8853 76.911 33.7847 81.6982 33.7847C86.5038 33.7847 88.9066 37.4307 88.9066 44.7227C88.9066 45.2607 88.6376 45.5298 88.0995 45.5298H85.1215C84.602 45.5298 84.3422 45.2607 84.3422 44.7227C84.3422 38.6553 83.4608 35.6216 81.6982 35.6216C79.9911 35.6216 79.1376 39.1099 79.1376 46.0864C79.1376 46.7358 79.2582 48.2573 79.4994 50.6509C79.8705 49.7417 80.5107 49.0088 81.4198 48.4521C82.329 47.877 83.3031 47.5894 84.3422 47.5894C85.7338 47.5894 86.8564 48.0811 87.7099 49.0645C88.5077 50.085 88.9066 51.3188 88.9066 52.7661V55.3823C88.9066 55.9204 88.6376 56.1895 88.0995 56.1895H85.1215C84.602 56.1895 84.3422 55.9204 84.3422 55.3823V53.3228C84.3422 52.729 84.1288 52.2188 83.7021 51.792C83.2939 51.3838 82.7836 51.1797 82.1713 51.1797C80.7611 51.1797 80.0561 51.894 80.0561 53.3228C80.0561 54.3989 80.4735 56.4492 81.3085 59.4736C82.1435 62.4795 82.5609 64.7803 82.5609 66.376C82.5609 69.0479 81.8559 70.894 80.4457 71.9146C82.4311 71.1167 83.6557 69.4653 84.1195 66.9604C84.268 66.0884 84.3422 63.6392 84.3422 59.6128C84.3422 59.0376 84.602 58.75 85.1215 58.75H88.0995C88.6376 58.75 88.9066 59.0376 88.9066 59.6128C88.9066 62.4146 88.0253 65.2998 86.2626 68.2686C84.2587 71.6455 81.9394 73.334 79.3046 73.334ZM113.477 52.4321C113.477 52.9146 113.189 53.1558 112.614 53.1558H108.801C107.428 53.1558 106.231 53.5732 105.211 54.4082C104.153 55.2432 103.624 56.3286 103.624 57.6646V72.2485C103.624 72.7495 103.337 73 102.761 73H99.8112C99.2731 72.9258 99.0041 72.6753 99.0041 72.2485V35.4268C99.0041 35.0186 99.2731 34.7773 99.8112 34.7031H112.614C113.189 34.7031 113.477 34.9443 113.477 35.4268V52.4321ZM107.938 51.7363C108.513 51.7363 108.801 51.4858 108.801 50.9849V36.874C108.801 36.373 108.513 36.1226 107.938 36.1226H104.404C103.884 36.1968 103.624 36.4473 103.624 36.874V53.6289C104.793 52.3672 106.231 51.7363 107.938 51.7363ZM132.981 48.0903L128.723 56.4678C128.111 57.6553 127.805 58.7222 127.805 59.6685V72.2485C127.805 72.7495 127.517 73 126.942 73H123.992C123.454 72.9258 123.185 72.6753 123.185 72.2485V35.4268C123.185 35.0186 123.454 34.7773 123.992 34.7031H126.942C127.517 34.7031 127.805 34.9443 127.805 35.4268V54.9927L132.007 46.2534C132.657 44.936 132.981 43.8784 132.981 43.0806V35.4268C132.981 35.0186 133.25 34.7773 133.789 34.7031H136.739C137.314 34.7031 137.602 34.9443 137.602 35.4268V72.2485C137.602 72.7495 137.314 73 136.739 73H133.789C133.25 72.9258 132.981 72.6753 132.981 72.2485V48.0903ZM153.098 47.7563C154.805 47.7563 156.253 48.3779 157.44 49.6211V36.874C157.44 36.4473 157.171 36.1968 156.633 36.1226H153.098C152.542 36.1226 152.263 36.373 152.263 36.874V47.0049C152.263 47.5059 152.542 47.7563 153.098 47.7563ZM157.44 55.271C155.585 55.8091 154.175 58.1841 153.21 62.396C152.579 65.3276 152.263 68.5747 152.263 72.1372C152.263 72.7124 151.994 73 151.456 73H148.423C147.903 73 147.643 72.7124 147.643 72.1372C147.643 68.4634 148.423 64.7988 149.981 61.1436C151.874 56.6904 154.36 54.1855 157.44 53.6289C157.44 52.293 156.93 51.2075 155.909 50.3726C154.833 49.5747 153.618 49.1758 152.263 49.1758H148.423C147.866 49.1758 147.588 48.9253 147.588 48.4243V35.4268C147.588 34.9443 147.866 34.7031 148.423 34.7031H161.253C161.791 34.7773 162.06 35.0186 162.06 35.4268V72.2485C162.06 72.6753 161.791 72.9258 161.253 73H158.303C157.728 73 157.44 72.7495 157.44 72.2485V55.271Z" fill="#CAA971"/>
<path d="M7.57325 82.98H4.47925V89H3.35925V82H8.69325V89H7.57325V82.98ZM10.8514 82H11.6214L11.8314 82.84H11.8874C12.1021 82.5133 12.3774 82.266 12.7134 82.098C13.0588 81.9207 13.4508 81.832 13.8894 81.832C14.8228 81.832 15.5181 82.1073 15.9754 82.658C16.4328 83.2087 16.6614 84.1093 16.6614 85.36C16.6614 85.948 16.5821 86.48 16.4234 86.956C16.2741 87.4227 16.0594 87.8193 15.7794 88.146C15.4994 88.4727 15.1588 88.7247 14.7574 88.902C14.3654 89.0793 13.9268 89.168 13.4414 89.168C13.0961 89.168 12.8208 89.1447 12.6154 89.098C12.4194 89.0607 12.2048 88.9907 11.9714 88.888V91.8H10.8514V82ZM13.6794 82.812C13.2034 82.812 12.8254 82.938 12.5454 83.19C12.2748 83.4327 12.0834 83.806 11.9714 84.31V87.782C12.1394 87.9127 12.3308 88.0153 12.5454 88.09C12.7601 88.1553 13.0448 88.188 13.3994 88.188C14.0434 88.188 14.5521 87.95 14.9254 87.474C15.3081 86.9887 15.4994 86.2793 15.4994 85.346C15.4994 84.9633 15.4668 84.618 15.4014 84.31C15.3361 83.9927 15.2288 83.7267 15.0794 83.512C14.9394 83.288 14.7528 83.1153 14.5194 82.994C14.2954 82.8727 14.0154 82.812 13.6794 82.812ZM18.3137 82.518C18.6683 82.3033 19.079 82.1447 19.5457 82.042C20.0217 81.9393 20.5163 81.888 21.0297 81.888C21.515 81.888 21.9023 81.9533 22.1917 82.084C22.4903 82.2147 22.7143 82.3873 22.8637 82.602C23.0223 82.8073 23.125 83.036 23.1717 83.288C23.2277 83.54 23.2557 83.792 23.2557 84.044C23.2557 84.604 23.2417 85.15 23.2137 85.682C23.1857 86.214 23.1717 86.718 23.1717 87.194C23.1717 87.5393 23.1857 87.866 23.2137 88.174C23.2417 88.482 23.293 88.7667 23.3677 89.028H22.5417L22.2477 88.048H22.1777C22.0937 88.1787 21.9863 88.3093 21.8557 88.44C21.7343 88.5613 21.585 88.6733 21.4077 88.776C21.2303 88.8693 21.025 88.9487 20.7917 89.014C20.5583 89.0793 20.2923 89.112 19.9937 89.112C19.695 89.112 19.415 89.0653 19.1537 88.972C18.9017 88.8787 18.6823 88.748 18.4957 88.58C18.309 88.4027 18.1597 88.1927 18.0477 87.95C17.945 87.7073 17.8937 87.432 17.8937 87.124C17.8937 86.7133 17.9777 86.3727 18.1457 86.102C18.3137 85.822 18.547 85.6027 18.8457 85.444C19.1537 85.276 19.5177 85.1593 19.9377 85.094C20.367 85.0193 20.8383 84.982 21.3517 84.982C21.4823 84.982 21.6083 84.982 21.7297 84.982C21.8603 84.982 21.991 84.9913 22.1217 85.01C22.1497 84.73 22.1637 84.478 22.1637 84.254C22.1637 83.7407 22.061 83.3813 21.8557 83.176C21.6503 82.9707 21.277 82.868 20.7357 82.868C20.577 82.868 20.4043 82.882 20.2177 82.91C20.0403 82.9287 19.8537 82.9613 19.6577 83.008C19.471 83.0453 19.289 83.0967 19.1117 83.162C18.9437 83.218 18.7943 83.2833 18.6637 83.358L18.3137 82.518ZM20.3017 88.132C20.563 88.132 20.7963 88.0993 21.0017 88.034C21.207 87.9593 21.3843 87.8707 21.5337 87.768C21.683 87.656 21.8043 87.5347 21.8977 87.404C22.0003 87.2733 22.075 87.1473 22.1217 87.026V85.864C21.991 85.8547 21.8557 85.85 21.7157 85.85C21.585 85.8407 21.4543 85.836 21.3237 85.836C21.0343 85.836 20.7497 85.8547 20.4697 85.892C20.199 85.92 19.9563 85.9807 19.7417 86.074C19.5363 86.158 19.3683 86.2793 19.2377 86.438C19.1163 86.5873 19.0557 86.7787 19.0557 87.012C19.0557 87.3387 19.1723 87.6093 19.4057 87.824C19.639 88.0293 19.9377 88.132 20.3017 88.132ZM25.371 82.014C25.6976 81.9953 26.0383 81.972 26.393 81.944C26.757 81.916 27.205 81.902 27.737 81.902C28.661 81.902 29.3236 82.0467 29.725 82.336C30.1263 82.616 30.327 83.0453 30.327 83.624C30.327 83.9507 30.229 84.2727 30.033 84.59C29.8463 84.898 29.5336 85.1267 29.095 85.276V85.332C29.6456 85.4347 30.033 85.626 30.257 85.906C30.481 86.186 30.593 86.5593 30.593 87.026C30.593 87.754 30.3316 88.2813 29.809 88.608C29.2863 88.9347 28.5023 89.098 27.457 89.098C27.065 89.098 26.701 89.084 26.365 89.056C26.029 89.0373 25.6976 89.014 25.371 88.986V82.014ZM26.491 88.062C26.6683 88.0807 26.841 88.0947 27.009 88.104C27.1863 88.1133 27.3916 88.118 27.625 88.118C28.2503 88.118 28.7123 88.0293 29.011 87.852C29.319 87.6747 29.473 87.3713 29.473 86.942C29.473 86.606 29.3423 86.3353 29.081 86.13C28.829 85.9153 28.3763 85.808 27.723 85.808H26.491V88.062ZM27.863 84.954C28.031 84.954 28.1943 84.926 28.353 84.87C28.5116 84.814 28.6516 84.7393 28.773 84.646C28.9036 84.5433 29.0063 84.4267 29.081 84.296C29.165 84.1653 29.207 84.0253 29.207 83.876C29.207 83.5027 29.095 83.246 28.871 83.106C28.647 82.9567 28.255 82.882 27.695 82.882C27.3963 82.882 27.1583 82.8867 26.981 82.896C26.813 82.9053 26.6496 82.9147 26.491 82.924V84.954H27.863ZM31.9653 85.5C31.9653 84.3147 32.2266 83.4093 32.7493 82.784C33.2813 82.1493 34.042 81.832 35.0313 81.832C35.554 81.832 36.0066 81.9207 36.3893 82.098C36.7813 82.266 37.1033 82.5133 37.3553 82.84C37.6073 83.1573 37.794 83.5447 37.9153 84.002C38.0366 84.45 38.0973 84.9493 38.0973 85.5C38.0973 86.6853 37.8313 87.5953 37.2993 88.23C36.7766 88.8553 36.0206 89.168 35.0313 89.168C34.5086 89.168 34.0513 89.084 33.6593 88.916C33.2766 88.7387 32.9593 88.4913 32.7073 88.174C32.4553 87.8473 32.2686 87.46 32.1473 87.012C32.026 86.5547 31.9653 86.0507 31.9653 85.5ZM33.1273 85.5C33.1273 85.8547 33.16 86.1953 33.2253 86.522C33.3 86.8487 33.412 87.1333 33.5613 87.376C33.7106 87.6187 33.9066 87.8147 34.1493 87.964C34.392 88.1133 34.686 88.188 35.0313 88.188C36.3006 88.1973 36.9353 87.3013 36.9353 85.5C36.9353 85.136 36.898 84.7907 36.8233 84.464C36.758 84.1373 36.6506 83.8527 36.5013 83.61C36.352 83.3673 36.156 83.176 35.9133 83.036C35.6706 82.8867 35.3766 82.812 35.0313 82.812C33.762 82.8027 33.1273 83.6987 33.1273 85.5ZM44.6372 88.538C44.3572 88.7433 44.0258 88.8973 43.6432 89C43.2605 89.112 42.8592 89.168 42.4392 89.168C41.8978 89.168 41.4405 89.084 41.0672 88.916C40.6938 88.7387 40.3858 88.4913 40.1432 88.174C39.9098 87.8473 39.7372 87.46 39.6252 87.012C39.5225 86.5547 39.4712 86.0507 39.4712 85.5C39.4712 84.3147 39.7325 83.4093 40.2552 82.784C40.7778 82.1493 41.5292 81.832 42.5092 81.832C42.9572 81.832 43.3352 81.8693 43.6432 81.944C43.9605 82.0093 44.2452 82.1073 44.4972 82.238L44.1752 83.204C43.9605 83.0827 43.7225 82.9893 43.4612 82.924C43.1998 82.8493 42.9198 82.812 42.6212 82.812C41.2958 82.812 40.6332 83.708 40.6332 85.5C40.6332 85.8547 40.6658 86.1953 40.7312 86.522C40.8058 86.8393 40.9225 87.124 41.0812 87.376C41.2492 87.6187 41.4638 87.8147 41.7252 87.964C41.9958 88.1133 42.3272 88.188 42.7192 88.188C43.0552 88.188 43.3538 88.1367 43.6152 88.034C43.8858 87.9313 44.1052 87.8147 44.2732 87.684L44.6372 88.538ZM49.9319 82.98H47.9019C47.8739 83.372 47.8459 83.7967 47.8179 84.254C47.7899 84.702 47.7479 85.1547 47.6919 85.612C47.6359 86.06 47.5612 86.494 47.4679 86.914C47.3746 87.3247 47.2532 87.6887 47.1039 88.006C46.9639 88.3233 46.7866 88.58 46.5719 88.776C46.3666 88.9627 46.1192 89.056 45.8299 89.056C45.6526 89.056 45.4986 89.0467 45.3679 89.028C45.2372 89.0093 45.1206 88.9767 45.0179 88.93L45.1859 87.992C45.2979 88.0293 45.4192 88.048 45.5499 88.048C45.7366 88.048 45.9046 87.9687 46.0539 87.81C46.2032 87.6513 46.3339 87.3527 46.4459 86.914C46.5579 86.466 46.6512 85.85 46.7259 85.066C46.8006 84.282 46.8519 83.26 46.8799 82H51.0519V89H49.9319V82.98ZM53.0949 82.518C53.4496 82.3033 53.8602 82.1447 54.3269 82.042C54.8029 81.9393 55.2976 81.888 55.8109 81.888C56.2962 81.888 56.6836 81.9533 56.9729 82.084C57.2716 82.2147 57.4956 82.3873 57.6449 82.602C57.8036 82.8073 57.9062 83.036 57.9529 83.288C58.0089 83.54 58.0369 83.792 58.0369 84.044C58.0369 84.604 58.0229 85.15 57.9949 85.682C57.9669 86.214 57.9529 86.718 57.9529 87.194C57.9529 87.5393 57.9669 87.866 57.9949 88.174C58.0229 88.482 58.0742 88.7667 58.1489 89.028H57.3229L57.0289 88.048H56.9589C56.8749 88.1787 56.7676 88.3093 56.6369 88.44C56.5156 88.5613 56.3662 88.6733 56.1889 88.776C56.0116 88.8693 55.8062 88.9487 55.5729 89.014C55.3396 89.0793 55.0736 89.112 54.7749 89.112C54.4762 89.112 54.1962 89.0653 53.9349 88.972C53.6829 88.8787 53.4636 88.748 53.2769 88.58C53.0902 88.4027 52.9409 88.1927 52.8289 87.95C52.7262 87.7073 52.6749 87.432 52.6749 87.124C52.6749 86.7133 52.7589 86.3727 52.9269 86.102C53.0949 85.822 53.3282 85.6027 53.6269 85.444C53.9349 85.276 54.2989 85.1593 54.7189 85.094C55.1482 85.0193 55.6196 84.982 56.1329 84.982C56.2636 84.982 56.3896 84.982 56.5109 84.982C56.6416 84.982 56.7722 84.9913 56.9029 85.01C56.9309 84.73 56.9449 84.478 56.9449 84.254C56.9449 83.7407 56.8422 83.3813 56.6369 83.176C56.4316 82.9707 56.0582 82.868 55.5169 82.868C55.3582 82.868 55.1856 82.882 54.9989 82.91C54.8216 82.9287 54.6349 82.9613 54.4389 83.008C54.2522 83.0453 54.0702 83.0967 53.8929 83.162C53.7249 83.218 53.5756 83.2833 53.4449 83.358L53.0949 82.518ZM55.0829 88.132C55.3442 88.132 55.5776 88.0993 55.7829 88.034C55.9882 87.9593 56.1656 87.8707 56.3149 87.768C56.4642 87.656 56.5856 87.5347 56.6789 87.404C56.7816 87.2733 56.8562 87.1473 56.9029 87.026V85.864C56.7722 85.8547 56.6369 85.85 56.4969 85.85C56.3662 85.8407 56.2356 85.836 56.1049 85.836C55.8156 85.836 55.5309 85.8547 55.2509 85.892C54.9802 85.92 54.7376 85.9807 54.5229 86.074C54.3176 86.158 54.1496 86.2793 54.0189 86.438C53.8976 86.5873 53.8369 86.7787 53.8369 87.012C53.8369 87.3387 53.9536 87.6093 54.1869 87.824C54.4202 88.0293 54.7189 88.132 55.0829 88.132ZM60.1522 82.014C60.4789 81.9953 60.8196 81.972 61.1742 81.944C61.5382 81.916 61.9862 81.902 62.5182 81.902C63.4422 81.902 64.1049 82.0467 64.5062 82.336C64.9076 82.616 65.1082 83.0453 65.1082 83.624C65.1082 83.9507 65.0102 84.2727 64.8142 84.59C64.6276 84.898 64.3149 85.1267 63.8762 85.276V85.332C64.4269 85.4347 64.8142 85.626 65.0382 85.906C65.2622 86.186 65.3742 86.5593 65.3742 87.026C65.3742 87.754 65.1129 88.2813 64.5902 88.608C64.0676 88.9347 63.2836 89.098 62.2382 89.098C61.8462 89.098 61.4822 89.084 61.1462 89.056C60.8102 89.0373 60.4789 89.014 60.1522 88.986V82.014ZM61.2722 88.062C61.4496 88.0807 61.6222 88.0947 61.7902 88.104C61.9676 88.1133 62.1729 88.118 62.4062 88.118C63.0316 88.118 63.4936 88.0293 63.7922 87.852C64.1002 87.6747 64.2542 87.3713 64.2542 86.942C64.2542 86.606 64.1236 86.3353 63.8622 86.13C63.6102 85.9153 63.1576 85.808 62.5042 85.808H61.2722V88.062ZM62.6442 84.954C62.8122 84.954 62.9756 84.926 63.1342 84.87C63.2929 84.814 63.4329 84.7393 63.5542 84.646C63.6849 84.5433 63.7876 84.4267 63.8622 84.296C63.9462 84.1653 63.9882 84.0253 63.9882 83.876C63.9882 83.5027 63.8762 83.246 63.6522 83.106C63.4282 82.9567 63.0362 82.882 62.4762 82.882C62.1776 82.882 61.9396 82.8867 61.7622 82.896C61.5942 82.9053 61.4309 82.9147 61.2722 82.924V84.954H62.6442ZM71.4225 85.906H68.2585V89H67.1385V82H68.2585V84.926H71.4225V82H72.5425V89H71.4225V85.906ZM75.8191 88.02C76.1644 88.076 76.4958 88.104 76.8131 88.104C77.4011 88.104 77.8118 87.992 78.0451 87.768C78.2784 87.5347 78.3951 87.208 78.3951 86.788C78.3951 86.4147 78.2784 86.1067 78.0451 85.864C77.8211 85.6213 77.4244 85.5 76.8551 85.5C76.6964 85.5 76.5238 85.5047 76.3371 85.514C76.1504 85.5233 75.9778 85.5513 75.8191 85.598V88.02ZM75.8191 84.674C76.0431 84.6367 76.2578 84.6133 76.4631 84.604C76.6684 84.5853 76.8644 84.576 77.0511 84.576C77.5271 84.576 77.9238 84.632 78.2411 84.744C78.5678 84.8467 78.8291 84.9913 79.0251 85.178C79.2211 85.3647 79.3564 85.5887 79.4311 85.85C79.5151 86.102 79.5571 86.3727 79.5571 86.662C79.5571 87.5113 79.3191 88.1273 78.8431 88.51C78.3764 88.8927 77.6158 89.084 76.5611 89.084C75.9638 89.084 75.3431 89.056 74.6991 89V82H75.8191V84.674ZM80.6631 82H81.7831V89H80.6631V82ZM89.0513 88.44C88.7713 88.664 88.4166 88.8413 87.9873 88.972C87.5673 89.1027 87.1193 89.168 86.6433 89.168C86.1113 89.168 85.6493 89.084 85.2573 88.916C84.8653 88.7387 84.5433 88.4913 84.2913 88.174C84.0393 87.8473 83.8526 87.46 83.7313 87.012C83.6099 86.564 83.5493 86.06 83.5493 85.5C83.5493 84.3053 83.8153 83.3953 84.3473 82.77C84.8793 82.1447 85.6399 81.832 86.6293 81.832C86.9466 81.832 87.2639 81.8693 87.5813 81.944C87.8986 82.0093 88.1833 82.14 88.4353 82.336C88.6873 82.532 88.8926 82.812 89.0513 83.176C89.2099 83.5307 89.2893 84.002 89.2893 84.59C89.2893 84.898 89.2613 85.2387 89.2053 85.612H84.7113C84.7113 86.0227 84.7533 86.3867 84.8373 86.704C84.9213 87.0213 85.0519 87.292 85.2293 87.516C85.4066 87.7307 85.6353 87.8987 85.9153 88.02C86.2046 88.132 86.5546 88.188 86.9653 88.188C87.2826 88.188 87.5999 88.132 87.9173 88.02C88.2346 87.908 88.4726 87.7773 88.6313 87.628L89.0513 88.44ZM86.6433 82.812C86.0926 82.812 85.6493 82.9567 85.3133 83.246C84.9866 83.5353 84.7906 84.03 84.7253 84.73H88.1973C88.1973 84.0207 88.0619 83.526 87.7913 83.246C87.5206 82.9567 87.1379 82.812 86.6433 82.812ZM100.215 89.168C99.7111 89.168 99.2771 89.0933 98.9131 88.944C98.5584 88.7853 98.2644 88.566 98.0311 88.286C97.8071 87.9967 97.6344 87.6513 97.5131 87.25C97.4011 86.8393 97.3311 86.3913 97.3031 85.906H95.9031V89H94.7831V82H95.9031V84.926H97.3171C97.3917 83.9273 97.6624 83.162 98.1291 82.63C98.6051 82.098 99.3097 81.832 100.243 81.832C100.756 81.832 101.19 81.9207 101.545 82.098C101.909 82.266 102.203 82.5133 102.427 82.84C102.66 83.1573 102.828 83.5447 102.931 84.002C103.034 84.45 103.085 84.9493 103.085 85.5C103.085 86.6853 102.847 87.5953 102.371 88.23C101.904 88.8553 101.186 89.168 100.215 89.168ZM98.4091 85.5C98.4091 85.864 98.4371 86.2093 98.4931 86.536C98.5491 86.8627 98.6471 87.152 98.7871 87.404C98.9271 87.6467 99.1137 87.838 99.3471 87.978C99.5897 88.118 99.8884 88.188 100.243 88.188C100.84 88.188 101.27 87.9733 101.531 87.544C101.792 87.1053 101.923 86.424 101.923 85.5C101.923 85.136 101.895 84.7907 101.839 84.464C101.792 84.1373 101.704 83.8527 101.573 83.61C101.442 83.358 101.27 83.162 101.055 83.022C100.84 82.882 100.565 82.812 100.229 82.812C99.5851 82.812 99.1184 83.0313 98.8291 83.47C98.5491 83.8993 98.4091 84.576 98.4091 85.5ZM104.846 82.014C105.172 81.9953 105.513 81.972 105.868 81.944C106.232 81.916 106.68 81.902 107.212 81.902C108.136 81.902 108.798 82.0467 109.2 82.336C109.601 82.616 109.802 83.0453 109.802 83.624C109.802 83.9507 109.704 84.2727 109.508 84.59C109.321 84.898 109.008 85.1267 108.57 85.276V85.332C109.12 85.4347 109.508 85.626 109.732 85.906C109.956 86.186 110.068 86.5593 110.068 87.026C110.068 87.754 109.806 88.2813 109.284 88.608C108.761 88.9347 107.977 89.098 106.932 89.098C106.54 89.098 106.176 89.084 105.84 89.056C105.504 89.0373 105.172 89.014 104.846 88.986V82.014ZM105.966 88.062C106.143 88.0807 106.316 88.0947 106.484 88.104C106.661 88.1133 106.866 88.118 107.1 88.118C107.725 88.118 108.187 88.0293 108.486 87.852C108.794 87.6747 108.948 87.3713 108.948 86.942C108.948 86.606 108.817 86.3353 108.556 86.13C108.304 85.9153 107.851 85.808 107.198 85.808H105.966V88.062ZM107.338 84.954C107.506 84.954 107.669 84.926 107.828 84.87C107.986 84.814 108.126 84.7393 108.248 84.646C108.378 84.5433 108.481 84.4267 108.556 84.296C108.64 84.1653 108.682 84.0253 108.682 83.876C108.682 83.5027 108.57 83.246 108.346 83.106C108.122 82.9567 107.73 82.882 107.17 82.882C106.871 82.882 106.633 82.8867 106.456 82.896C106.288 82.9053 106.124 82.9147 105.966 82.924V84.954H107.338ZM116.942 88.44C116.662 88.664 116.307 88.8413 115.878 88.972C115.458 89.1027 115.01 89.168 114.534 89.168C114.002 89.168 113.54 89.084 113.148 88.916C112.756 88.7387 112.434 88.4913 112.182 88.174C111.93 87.8473 111.743 87.46 111.622 87.012C111.501 86.564 111.44 86.06 111.44 85.5C111.44 84.3053 111.706 83.3953 112.238 82.77C112.77 82.1447 113.531 81.832 114.52 81.832C114.837 81.832 115.155 81.8693 115.472 81.944C115.789 82.0093 116.074 82.14 116.326 82.336C116.578 82.532 116.783 82.812 116.942 83.176C117.101 83.5307 117.18 84.002 117.18 84.59C117.18 84.898 117.152 85.2387 117.096 85.612H112.602C112.602 86.0227 112.644 86.3867 112.728 86.704C112.812 87.0213 112.943 87.292 113.12 87.516C113.297 87.7307 113.526 87.8987 113.806 88.02C114.095 88.132 114.445 88.188 114.856 88.188C115.173 88.188 115.491 88.132 115.808 88.02C116.125 87.908 116.363 87.7773 116.522 87.628L116.942 88.44ZM114.534 82.812C113.983 82.812 113.54 82.9567 113.204 83.246C112.877 83.5353 112.681 84.03 112.616 84.73H116.088C116.088 84.0207 115.953 83.526 115.682 83.246C115.411 82.9567 115.029 82.812 114.534 82.812ZM122.393 82.98H120.363C120.335 83.372 120.307 83.7967 120.279 84.254C120.251 84.702 120.209 85.1547 120.153 85.612C120.097 86.06 120.022 86.494 119.929 86.914C119.835 87.3247 119.714 87.6887 119.565 88.006C119.425 88.3233 119.247 88.58 119.033 88.776C118.827 88.9627 118.58 89.056 118.291 89.056C118.113 89.056 117.959 89.0467 117.829 89.028C117.698 89.0093 117.581 88.9767 117.479 88.93L117.647 87.992C117.759 88.0293 117.88 88.048 118.011 88.048C118.197 88.048 118.365 87.9687 118.515 87.81C118.664 87.6513 118.795 87.3527 118.907 86.914C119.019 86.466 119.112 85.85 119.187 85.066C119.261 84.282 119.313 83.26 119.341 82H123.513V89H122.393V82.98ZM130.036 84.856L130.078 83.988H130.036L129.462 84.884L126.312 89H125.668V82H126.788V86.27L126.746 87.096H126.802L127.348 86.228L130.498 82H131.156V89H130.036V84.856ZM133.31 82H134.08L134.29 82.84H134.346C134.561 82.5133 134.836 82.266 135.172 82.098C135.518 81.9207 135.91 81.832 136.348 81.832C137.282 81.832 137.977 82.1073 138.434 82.658C138.892 83.2087 139.12 84.1093 139.12 85.36C139.12 85.948 139.041 86.48 138.882 86.956C138.733 87.4227 138.518 87.8193 138.238 88.146C137.958 88.4727 137.618 88.7247 137.216 88.902C136.824 89.0793 136.386 89.168 135.9 89.168C135.555 89.168 135.28 89.1447 135.074 89.098C134.878 89.0607 134.664 88.9907 134.43 88.888V91.8H133.31V82ZM136.138 82.812C135.662 82.812 135.284 82.938 135.004 83.19C134.734 83.4327 134.542 83.806 134.43 84.31V87.782C134.598 87.9127 134.79 88.0153 135.004 88.09C135.219 88.1553 135.504 88.188 135.858 88.188C136.502 88.188 137.011 87.95 137.384 87.474C137.767 86.9887 137.958 86.2793 137.958 85.346C137.958 84.9633 137.926 84.618 137.86 84.31C137.795 83.9927 137.688 83.7267 137.538 83.512C137.398 83.288 137.212 83.1153 136.978 82.994C136.754 82.8727 136.474 82.812 136.138 82.812ZM145.169 85.906H142.005V89H140.885V82H142.005V84.926H145.169V82H146.289V89H145.169V85.906ZM149.565 88.02C149.911 88.076 150.242 88.104 150.559 88.104C151.147 88.104 151.558 87.992 151.791 87.768C152.025 87.5347 152.141 87.208 152.141 86.788C152.141 86.4147 152.025 86.1067 151.791 85.864C151.567 85.6213 151.171 85.5 150.601 85.5C150.443 85.5 150.27 85.5047 150.083 85.514C149.897 85.5233 149.724 85.5513 149.565 85.598V88.02ZM149.565 84.674C149.789 84.6367 150.004 84.6133 150.209 84.604C150.415 84.5853 150.611 84.576 150.797 84.576C151.273 84.576 151.67 84.632 151.987 84.744C152.314 84.8467 152.575 84.9913 152.771 85.178C152.967 85.3647 153.103 85.5887 153.177 85.85C153.261 86.102 153.303 86.3727 153.303 86.662C153.303 87.5113 153.065 88.1273 152.589 88.51C152.123 88.8927 151.362 89.084 150.307 89.084C149.71 89.084 149.089 89.056 148.445 89V82H149.565V84.674ZM154.409 82H155.529V89H154.409V82ZM162.797 88.44C162.517 88.664 162.163 88.8413 161.733 88.972C161.313 89.1027 160.865 89.168 160.389 89.168C159.857 89.168 159.395 89.084 159.003 88.916C158.611 88.7387 158.289 88.4913 158.037 88.174C157.785 87.8473 157.599 87.46 157.477 87.012C157.356 86.564 157.295 86.06 157.295 85.5C157.295 84.3053 157.561 83.3953 158.093 82.77C158.625 82.1447 159.386 81.832 160.375 81.832C160.693 81.832 161.01 81.8693 161.327 81.944C161.645 82.0093 161.929 82.14 162.181 82.336C162.433 82.532 162.639 82.812 162.797 83.176C162.956 83.5307 163.035 84.002 163.035 84.59C163.035 84.898 163.007 85.2387 162.951 85.612H158.457C158.457 86.0227 158.499 86.3867 158.583 86.704C158.667 87.0213 158.798 87.292 158.975 87.516C159.153 87.7307 159.381 87.8987 159.661 88.02C159.951 88.132 160.301 88.188 160.711 88.188C161.029 88.188 161.346 88.132 161.663 88.02C161.981 87.908 162.219 87.7773 162.377 87.628L162.797 88.44ZM160.389 82.812C159.839 82.812 159.395 82.9567 159.059 83.246C158.733 83.5353 158.537 84.03 158.471 84.73H161.943C161.943 84.0207 161.808 83.526 161.537 83.246C161.267 82.9567 160.884 82.812 160.389 82.812ZM63.6862 96.856L63.7282 95.988H63.6862L63.1122 96.884L59.9622 101H59.3182V94H60.4382V98.27L60.3962 99.096H60.4522L60.9982 98.228L64.1482 94H64.8062V101H63.6862V96.856ZM67.6328 97.878V96.968H68.6128C68.7808 96.968 68.9441 96.94 69.1028 96.884C69.2708 96.828 69.4201 96.7533 69.5508 96.66C69.6815 96.5573 69.7841 96.4407 69.8588 96.31C69.9428 96.17 69.9848 96.0253 69.9848 95.876C69.9848 95.512 69.8588 95.2553 69.6068 95.106C69.3548 94.9567 68.9768 94.882 68.4728 94.882C68.1088 94.882 67.7728 94.938 67.4648 95.05C67.1661 95.162 66.9328 95.2693 66.7648 95.372L66.4428 94.504C66.7228 94.3453 67.0495 94.2053 67.4228 94.084C67.8055 93.9627 68.2581 93.902 68.7808 93.902C70.3301 93.902 71.1048 94.476 71.1048 95.624C71.1048 95.9507 70.9975 96.2727 70.7828 96.59C70.5775 96.898 70.2788 97.1173 69.8868 97.248V97.304C70.4375 97.4067 70.8201 97.6027 71.0348 97.892C71.2588 98.1813 71.3708 98.564 71.3708 99.04C71.3708 99.3387 71.3101 99.614 71.1888 99.866C71.0675 100.118 70.8855 100.337 70.6428 100.524C70.4001 100.711 70.0921 100.86 69.7188 100.972C69.3548 101.075 68.9301 101.126 68.4448 101.126C67.9688 101.126 67.5721 101.084 67.2548 101C66.9468 100.916 66.6668 100.813 66.4148 100.692L66.7368 99.768C66.9515 99.8893 67.2081 99.9827 67.5068 100.048C67.8148 100.113 68.1461 100.146 68.5008 100.146C69.0701 100.146 69.5041 100.048 69.8028 99.852C70.1015 99.656 70.2508 99.3573 70.2508 98.956C70.2508 98.62 70.1108 98.3587 69.8308 98.172C69.5508 97.976 69.0888 97.878 68.4448 97.878H67.6328ZM79.3285 102.778H78.5725L78.3625 101H73.0985L72.8885 102.778H72.1325V100.02H72.9585C73.0332 99.9173 73.1312 99.7353 73.2525 99.474C73.3738 99.2033 73.4905 98.83 73.6025 98.354C73.7238 97.8687 73.8265 97.2713 73.9105 96.562C74.0038 95.8433 74.0598 94.9893 74.0785 94H78.3065V100.02H79.3285V102.778ZM77.1865 100.02V94.98H75.0865C75.0678 95.372 75.0352 95.8013 74.9885 96.268C74.9418 96.7253 74.8765 97.1873 74.7925 97.654C74.7178 98.1113 74.6198 98.5453 74.4985 98.956C74.3772 99.3667 74.2372 99.7213 74.0785 100.02H77.1865ZM85.8247 100.44C85.5447 100.664 85.1901 100.841 84.7607 100.972C84.3407 101.103 83.8927 101.168 83.4167 101.168C82.8847 101.168 82.4227 101.084 82.0307 100.916C81.6387 100.739 81.3167 100.491 81.0647 100.174C80.8127 99.8473 80.6261 99.46 80.5047 99.012C80.3834 98.564 80.3227 98.06 80.3227 97.5C80.3227 96.3053 80.5887 95.3953 81.1207 94.77C81.6527 94.1447 82.4134 93.832 83.4027 93.832C83.7201 93.832 84.0374 93.8693 84.3547 93.944C84.6721 94.0093 84.9567 94.14 85.2087 94.336C85.4607 94.532 85.6661 94.812 85.8247 95.176C85.9834 95.5307 86.0627 96.002 86.0627 96.59C86.0627 96.898 86.0347 97.2387 85.9787 97.612H81.4847C81.4847 98.0227 81.5267 98.3867 81.6107 98.704C81.6947 99.0213 81.8254 99.292 82.0027 99.516C82.1801 99.7307 82.4087 99.8987 82.6887 100.02C82.9781 100.132 83.3281 100.188 83.7387 100.188C84.0561 100.188 84.3734 100.132 84.6907 100.02C85.0081 99.908 85.2461 99.7773 85.4047 99.628L85.8247 100.44ZM83.4167 94.812C82.8661 94.812 82.4227 94.9567 82.0867 95.246C81.7601 95.5353 81.5641 96.03 81.4987 96.73H84.9707C84.9707 96.0207 84.8354 95.526 84.5647 95.246C84.2941 94.9567 83.9114 94.812 83.4167 94.812ZM91.2756 94.98H89.2456C89.2176 95.372 89.1896 95.7967 89.1616 96.254C89.1336 96.702 89.0916 97.1547 89.0356 97.612C88.9796 98.06 88.905 98.494 88.8116 98.914C88.7183 99.3247 88.597 99.6887 88.4476 100.006C88.3076 100.323 88.1303 100.58 87.9156 100.776C87.7103 100.963 87.463 101.056 87.1736 101.056C86.9963 101.056 86.8423 101.047 86.7116 101.028C86.581 101.009 86.4643 100.977 86.3616 100.93L86.5296 99.992C86.6416 100.029 86.763 100.048 86.8936 100.048C87.0803 100.048 87.2483 99.9687 87.3976 99.81C87.547 99.6513 87.6776 99.3527 87.7896 98.914C87.9016 98.466 87.995 97.85 88.0696 97.066C88.1443 96.282 88.1956 95.26 88.2236 94H92.3956V101H91.2756V94.98ZM98.9187 96.856L98.9607 95.988H98.9187L98.3447 96.884L95.1947 101H94.5507V94H95.6707V98.27L95.6287 99.096H95.6847L96.2307 98.228L99.3807 94H100.039V101H98.9187V96.856ZM105.679 98.102L104.601 98.27L102.753 101H101.395L103.075 98.606L103.635 98.088C103.15 98.0133 102.735 97.8173 102.389 97.5C102.053 97.1827 101.885 96.7533 101.885 96.212C101.885 95.792 101.955 95.4327 102.095 95.134C102.245 94.8353 102.455 94.588 102.725 94.392C102.996 94.196 103.318 94.056 103.691 93.972C104.065 93.8787 104.485 93.832 104.951 93.832C105.297 93.832 105.619 93.8553 105.917 93.902C106.216 93.9487 106.51 94 106.799 94.056V101H105.679V98.102ZM105.679 94.952C105.558 94.9053 105.423 94.8727 105.273 94.854C105.124 94.826 104.993 94.812 104.881 94.812C104.284 94.812 103.827 94.9193 103.509 95.134C103.201 95.3487 103.047 95.6893 103.047 96.156C103.047 96.576 103.211 96.9027 103.537 97.136C103.873 97.36 104.312 97.472 104.853 97.472C104.863 97.472 104.877 97.472 104.895 97.472C104.914 97.472 104.951 97.472 105.007 97.472C105.063 97.472 105.143 97.472 105.245 97.472C105.348 97.4627 105.493 97.4533 105.679 97.444V94.952Z" fill="#666B72"/>
<defs>
<linearGradient id="paint0_linear" x1="85.4535" y1="0" x2="85.4535" y2="27.7986" gradientUnits="userSpaceOnUse">
<stop stop-color="#E4C29A" stop-opacity="0.9"/>
<stop offset="1" stop-color="#CAA971"/>
</linearGradient>
</defs>
</svg>
