<svg width="149" height="22" viewBox="0 0 149 22" fill="none" xmlns="http://www.w3.org/2000/svg">
<path d="M1.16999 16.65C6.64999 16.95 10.36 17.1 12.3 17.1C12.76 17.1 13.12 16.97 13.38 16.71C13.66 16.43 13.8 16.06 13.8 15.6V12.9H6.89999C4.79999 12.9 3.26999 12.43 2.30999 11.49C1.36999 10.53 0.899994 9 0.899994 6.9V6C0.899994 3.9 1.36999 2.38 2.30999 1.44C3.26999 0.48 4.79999 0 6.89999 0H17.43V4.2H8.09999C6.89999 4.2 6.29999 4.8 6.29999 6V6.6C6.29999 7.8 6.89999 8.4 8.09999 8.4H13.5C15.46 8.4 16.9 8.86 17.82 9.78C18.74 10.7 19.2 12.14 19.2 14.1V15.6C19.2 17.56 18.74 19 17.82 19.92C16.9 20.84 15.46 21.3 13.5 21.3C12.48 21.3 11.4 21.28 10.26 21.24L7.49999 21.12C5.45999 21.02 3.34999 20.88 1.16999 20.7V16.65Z" fill="white"/>
<path d="M39.8977 9.3L35.6977 16.8H31.4977L27.2977 9.3V21H21.8976V0H27.5977L33.5977 11.1L39.5977 0H45.2976V21H39.8977V9.3Z" fill="white"/>
<path d="M65.5594 21H48.9094V0H65.5594V4.2H54.3094V8.25H63.1594V12.45H54.3094V16.8H65.5594V21Z" fill="white"/>
<path d="M86.2523 21H80.5523L73.3523 8.4V21H67.9523V0H73.6523L80.8523 12.6V0H86.2523V21Z" fill="white"/>
<path d="M93.6164 21H87.7664L95.7164 0H101.716L109.666 21H103.816L102.466 17.25H94.9664L93.6164 21ZM96.3164 13.35H101.116L98.7164 6.3L96.3164 13.35Z" fill="white"/>
<path d="M129.794 6.6C129.794 8.3 129.074 9.77 127.634 11.01C127.194 11.39 126.714 11.77 126.194 12.15L119.744 16.8H129.794V21H113.594V15.3L124.394 7.5V6C124.394 4.8 123.794 4.2 122.594 4.2H114.194V0H123.794C125.894 0 127.414 0.48 128.354 1.44C129.314 2.38 129.794 3.9 129.794 6V6.6Z" fill="#FF582B"/>
<path d="M141.188 16.8H130.088V12.6L137.288 0H143.288L136.088 12.6H141.188V8.1H146.588V12.6H148.688V16.8H146.588V21H141.188V16.8Z" fill="#FF582B"/>
</svg>
