<?xml version="1.0" encoding="UTF-8" standalone="no"?>
<svg
   xmlns:dc="http://purl.org/dc/elements/1.1/"
   xmlns:cc="http://creativecommons.org/ns#"
   xmlns:rdf="http://www.w3.org/1999/02/22-rdf-syntax-ns#"
   xmlns:svg="http://www.w3.org/2000/svg"
   xmlns="http://www.w3.org/2000/svg"
   xmlns:sodipodi="http://sodipodi.sourceforge.net/DTD/sodipodi-0.dtd"
   xmlns:inkscape="http://www.inkscape.org/namespaces/inkscape"
   width="160.75278"
   height="103.1174"
   viewBox="0 0 160.75278 103.1174"
   version="1.1"
   id="svg15"
   sodipodi:docname="logo.svg"
   inkscape:version="0.92.4 (5da689c313, 2019-01-14)"
   style="fill:none">
  <metadata
     id="metadata19">
    <rdf:RDF>
      <cc:Work
         rdf:about="">
        <dc:format>image/svg+xml</dc:format>
        <dc:type
           rdf:resource="http://purl.org/dc/dcmitype/StillImage" />
        <dc:title></dc:title>
      </cc:Work>
    </rdf:RDF>
  </metadata>
  <sodipodi:namedview
     pagecolor="#ffffff"
     bordercolor="#666666"
     borderopacity="1"
     objecttolerance="10"
     gridtolerance="10"
     guidetolerance="10"
     inkscape:pageopacity="0"
     inkscape:pageshadow="2"
     inkscape:window-width="1920"
     inkscape:window-height="1028"
     id="namedview17"
     showgrid="false"
     inkscape:zoom="2.2222222"
     inkscape:cx="83.21777"
     inkscape:cy="105.278"
     inkscape:window-x="-8"
     inkscape:window-y="-8"
     inkscape:window-maximized="1"
     inkscape:current-layer="svg15"
     fit-margin-top="0"
     fit-margin-left="0"
     fit-margin-right="0"
     fit-margin-bottom="0" />
  <g
     id="g829"
     transform="translate(-2.28223,0.33940451)">
    <path
       id="path2"
       d="m 64.8701,14.6443 c -3.4749,-0.536 -7.3298,-0.8768 -10.6906,-0.8857 -4.9857,-0.0149 -8.455,-1.1629 -10.9872,-3.5337 l -0.3417,0.365 0.3417,-0.365 -1.0355,-0.96952 0.4599,0.08693 10e-5,1e-5 c 1.2011,0.22691 7.0255,1.03018 12.9315,1.78478 11.5079,1.4704 15.4301,2.5767 19.8584,5.4897 0.8766,0.5766 1.5467,0.9655 1.9334,1.0987 0.0907,0.0313 0.233,0.0736 0.382,0.0622 0.0802,-0.0061 0.213,-0.0316 0.3335,-0.1343 0.1337,-0.1139 0.1852,-0.2649 0.1926,-0.3905 0.0115,-0.1963 -0.0806,-0.3605 -0.122,-0.4311 -0.0571,-0.0973 -0.1341,-0.2011 -0.2215,-0.3073 l -0.2884,0.2371 0.2884,-0.2371 C 77.5379,16.0683 76.915,15.5736 76.1673,15.0759 75.4094,14.5714 74.4871,14.0404 73.4896,13.5272 71.4974,12.5021 69.1742,11.5318 67.2157,10.9799 l -0.1356,0.4813 0.1356,-0.4813 C 65.5919,10.5224 59.9043,9.67013 54.5917,9.07843 43.5721,7.85102 38.6556,5.88776 35.6268,1.81693 v -10e-6 C 35.2867,1.35986 35.0255,0.995019 34.8365,0.708795 c 0.3238,0.090747 0.7653,0.186926 1.3676,0.298055 0.861,0.1589 2.0809,0.3535 3.8104,0.6062 3.4601,0.50554 8.9815,1.24669 17.7976,2.40372 6.486,0.8512 11.782,2.94776 15.8644,6.22523 4.0795,3.2751 6.9759,7.7526 8.6291,13.4163 0.2968,1.0166 0.5097,1.8577 0.6422,2.5074 0.0079,0.0386 0.0154,0.0763 0.0227,0.1133 -6e-4,-0.0012 -0.0013,-0.0023 -0.0019,-0.0035 L 82.8598,26.0722 82.8542,26.071 c -0.7888,-1.3531 -2.0028,-2.2771 -3.8234,-2.861 -1.8859,-0.6048 -4.4409,-0.8514 -7.8936,-0.8514 -2.7124,0 -4.3354,-0.058 -5.4542,-0.2594 -1.0791,-0.1943 -1.6698,-0.5183 -2.3188,-1.0774 0,0 0,0 0,0 l -0.5459,-0.4704 4.2252,0.3085 h 1e-4 c 3.1594,0.2304 6.5177,0.5671 7.4713,0.7439 0.389,0.0722 0.7002,0.1256 0.9262,0.1523 0.1112,0.013 0.2202,0.022 0.3153,0.0198 0.0472,-0.0011 0.1076,-0.0051 0.1709,-0.0192 0.0538,-0.0119 0.1682,-0.0431 0.2717,-0.1381 0.1325,-0.1215 0.1919,-0.2964 0.1676,-0.4682 -0.019,-0.1344 -0.0835,-0.2292 -0.116,-0.2723 C 76.1822,20.7871 76.0898,20.7123 76.0208,20.66 75.8689,20.5449 75.64,20.4004 75.3603,20.2307 l -2e-4,-10e-5 c -0.1466,-0.0888 -0.3449,-0.1603 -0.5495,-0.2214 -0.2153,-0.0643 -0.478,-0.1285 -0.7781,-0.1921 -0.6007,-0.1275 -1.3752,-0.2577 -2.2666,-0.3837 -1.7842,-0.2522 -4.0602,-0.4905 -6.4002,-0.6547 -4.0232,-0.2823 -7.222,-0.7558 -9.4027,-1.3556 -1.0942,-0.3009 -1.9011,-0.6255 -2.4234,-0.9545 -0.3744,-0.2358 -0.5432,-0.4342 -0.6119,-0.5825 0.0548,-0.0149 0.1257,-0.0299 0.2144,-0.0428 0.3633,-0.0526 0.8968,-0.0509 1.5063,0.0317 h 2e-4 c 1.2905,0.1747 5.2534,0.6142 8.8053,0.9768 3.5429,0.3619 7.8384,1.1484 9.5365,1.7334 1.1072,0.3815 1.9513,0.6379 2.5255,0.7758 0.2823,0.0678 0.5233,0.113 0.7058,0.1244 0.0837,0.0052 0.203,0.0072 0.3197,-0.025 0.0597,-0.0165 0.1585,-0.0525 0.2488,-0.1376 0.1045,-0.0986 0.1692,-0.2374 0.17,-0.3907 8e-4,-0.1327 -0.0465,-0.2347 -0.0794,-0.2917 -0.0348,-0.0605 -0.0756,-0.1087 -0.1088,-0.1438 -0.0662,-0.0699 -0.1472,-0.1341 -0.2272,-0.1911 -0.1633,-0.1165 -0.3914,-0.2515 -0.6735,-0.4023 -0.5682,-0.3039 -1.4085,-0.6998 -2.5154,-1.176 -1.891,-0.8136 -5.0218,-1.5486 -8.4858,-2.0829 z m 12.4051,2.706 c -3e-4,-2e-4 -0.0025,-0.0043 -0.0054,-0.0117 0.0044,0.0082 0.0058,0.0119 0.0054,0.0117 z M 34.4961,0.0968485 c 2e-4,1.12e-4 9e-4,0.0029167 0.0017,0.0080775 C 34.4963,0.0993171 34.4959,0.0967365 34.4961,0.0968485 Z M 52.787,15.9399 c 0,0 8e-4,-6e-4 0.0028,-0.0018 -0.0018,0.0013 -0.0027,0.0018 -0.0028,0.0018 z m 55.906,-11.21391 -0.109,-0.4879 0.109,0.4879 c 1.585,-0.35522 7.234,-1.15891 12.562,-1.78344 5.316,-0.62302 10.98,-1.43116 12.578,-1.79902 0.767,-0.176699 1.495,-0.300264 2.045,-0.357932 0.077,-0.008056 0.15,-0.014719 0.217,-0.020046 -0.084,0.10811 -0.183,0.229377 -0.296,0.362708 -0.506,0.59673 -1.256,1.38571 -2.127,2.21959 l 0.343,0.35785 -0.343,-0.35785 c -1.903,1.82409 -3.512,2.93359 -6.072,3.75839 -2.594,0.83562 -6.171,1.38144 -12.028,2.03049 -4.923,0.54558 -10.641,1.47717 -12.706,2.07917 -1.751,0.5107 -4.4098,1.7565 -6.6153,2.9731 -1.1063,0.6103 -2.1154,1.2225 -2.8533,1.7432 -0.3672,0.259 -0.6809,0.5049 -0.9079,0.724 -0.1129,0.109 -0.2172,0.2234 -0.2967,0.3401 -0.0708,0.1039 -0.1672,0.2739 -0.1672,0.4811 0,0.149 0.0627,0.3186 0.2175,0.4326 0.1261,0.0929 0.2575,0.106 0.3205,0.1081 0.1278,0.0044 0.2505,-0.0306 0.328,-0.0557 0.1769,-0.0572 0.4039,-0.1616 0.6533,-0.2906 0.5081,-0.2627 1.196,-0.6731 1.9441,-1.167 4.2306,-2.7925 8.272,-3.9201 19.679,-5.3775 5.901,-0.754 11.654,-1.56612 12.764,-1.80502 0.571,-0.12273 0.962,-0.15556 1.209,-0.13729 0.057,0.00416 0.1,0.01037 0.132,0.01683 -0.007,0.01569 -0.016,0.03368 -0.028,0.05416 -0.09,0.16191 -0.267,0.38115 -0.544,0.64245 -1.111,1.04787 -3.425,2.40537 -5.842,3.02007 -1.521,0.3864 -6.433,0.9322 -10.925,1.2012 -4.238,0.2538 -7.71,0.674 -10.439,1.2716 -2.7182,0.5953 -4.7481,1.3765 -6.0607,2.3839 -0.3112,0.2388 -0.571,0.4454 -0.7207,0.5998 -0.0395,0.0407 -0.0837,0.0902 -0.1219,0.1459 -0.0298,0.0433 -0.0987,0.1499 -0.1119,0.296 -0.0076,0.0839 0.0027,0.1888 0.0566,0.2939 0.054,0.1051 0.1335,0.1749 0.2067,0.2179 0.1276,0.0747 0.2556,0.0804 0.3096,0.0812 0.1253,0.0019 0.2677,-0.0258 0.3956,-0.0559 0.1397,-0.0329 0.3101,-0.0809 0.5094,-0.1416 0.3992,-0.1216 0.9423,-0.3032 1.6416,-0.542 1.6626,-0.5666 5.9727,-1.368 9.5707,-1.7674 3.605,-0.4003 7.609,-0.8669 8.896,-1.0371 0.609,-0.0805 1.143,-0.0808 1.506,-0.0271 0.089,0.0132 0.16,0.0284 0.215,0.0435 -0.069,0.1442 -0.237,0.3393 -0.609,0.5726 -0.523,0.3276 -1.332,0.6523 -2.429,0.9557 -2.188,0.6046 -5.402,1.0918 -9.459,1.3998 -2.368,0.1796 -4.66,0.4296 -6.448,0.6883 -0.8933,0.1293 -1.6665,0.2615 -2.2627,0.3894 -0.2978,0.0638 -0.5577,0.128 -0.7693,0.1918 -0.1994,0.0601 -0.3969,0.1317 -0.5414,0.2226 -0.2677,0.1685 -0.4832,0.3078 -0.6295,0.4156 -0.0696,0.0513 -0.1471,0.1123 -0.2085,0.1778 -0.0288,0.0307 -0.0793,0.0884 -0.1172,0.1687 -0.0368,0.0781 -0.0993,0.2633 0.0033,0.4667 0.0961,0.1907 0.2667,0.2531 0.3332,0.2722 0.0767,0.0221 0.1465,0.0251 0.1883,0.0253 0.0877,5e-4 0.1845,-0.012 0.2727,-0.0264 0.1835,-0.0299 0.439,-0.0866 0.7546,-0.1607 1.1791,-0.2767 4.6275,-0.6041 7.8275,-0.8094 1.59,-0.102 3.098,-0.1726 4.206,-0.1918 0.373,-0.0065 0.696,-0.007 0.959,-0.0014 -0.037,0.0232 -0.077,0.0472 -0.12,0.072 -0.428,0.2432 -1.092,0.4846 -1.991,0.7061 -1.789,0.441 -4.389,0.7752 -7.5872,0.9403 -3.5459,0.1829 -5.4628,0.2916 -6.7921,0.6744 -1.3926,0.4011 -2.1479,1.104 -3.3858,2.3039 l 0.3479,0.359 -0.348,-0.359 c -0.5345,0.5181 -1.0283,0.9709 -1.4306,1.3178 0.0656,-0.2188 0.1422,-0.4604 0.2285,-0.7212 0.3136,-0.9474 0.7489,-2.1279 1.2318,-3.3527 0.97,-2.4601 2.1136,-5.0511 2.834,-6.2804 3.328,-5.6786 9.4755,-9.92177 16.8475,-11.57331 z M 93.0053,17.5824 c 0,-3e-4 9e-4,-0.0021 0.0029,-0.0056 -0.0017,0.0039 -0.0029,0.0058 -0.0029,0.0056 z M 136.678,0.765167 c -0.001,1.44e-4 -0.004,-6.62e-4 -0.011,-0.002855 0.008,0.001614 0.011,0.00271 0.011,0.002855 z m -7.374,8.348213 c 0,-3e-5 0,0.00143 0,0.00442 0,-0.00286 0,-0.00438 0,-0.00442 z m -11.376,6.82322 c 0,0 -0.002,-6e-4 -0.003,-0.002 0.002,0.0014 0.003,0.002 0.003,0.002 z M 35.2276,2.11394 35.2257,2.11539 Z"
       inkscape:connector-curvature="0"
       style="fill:url(#paint0_linear);stroke:#caa971" />
    <path
       id="path4"
       d="m 15.8364,54.5195 c 0.5752,0 0.8628,0.2505 0.8628,0.7515 V 72.2485 C 16.6992,72.7495 16.4116,73 15.8364,73 H 3.08936 C 2.55127,72.9258 2.28223,72.6753 2.28223,72.2485 V 35.4268 c 0,-0.4082 0.26904,-0.6495 0.80713,-0.7237 H 15.4468 c 0.5752,0 0.8628,0.2412 0.8628,0.7237 v 9.3515 c 0,0.501 -0.2876,0.7515 -0.8628,0.7515 h -3.3677 c -1.373,0 -2.56982,0.4175 -3.59033,1.2524 -1.05762,0.835 -1.58643,1.9204 -1.58643,3.2564 0,1.3174 0.52881,2.3935 1.58643,3.2285 1.02051,0.835 2.21733,1.2524 3.59033,1.2524 z M 6.90234,70.8291 c 0,0.4268 0.25977,0.6772 0.7793,0.7515 h 3.53466 c 0.5752,0 0.8628,-0.2505 0.8628,-0.7515 V 56.6904 c 0,-0.4824 -0.2876,-0.7236 -0.8628,-0.7236 -1.59569,0 -3.03368,-0.6494 -4.31396,-1.9482 z M 11.2163,44.0547 c 0.5752,0 0.8628,-0.2505 0.8628,-0.7515 V 36.874 c 0,-0.501 -0.2876,-0.7514 -0.8628,-0.7514 H 7.68164 c -0.51953,0.0742 -0.7793,0.3247 -0.7793,0.7514 v 9.1011 C 8.1084,44.6948 9.54639,44.0547 11.2163,44.0547 Z M 31.222,73.334 c -1.2061,0 -2.2637,-0.2598 -3.1729,-0.7793 -1.0762,-0.6494 -1.6142,-1.5493 -1.6142,-2.6997 0,-0.6865 0.269,-1.2896 0.8071,-1.8091 0.501,-0.5381 1.1133,-0.8071 1.8369,-0.8071 0.7236,0 1.3545,0.2412 1.8926,0.7236 0.5566,0.4639 0.8349,1.0576 0.8349,1.7813 0,0.9462 -0.3247,1.707 -0.9741,2.2822 h 0.5845 c 0.8721,-0.6123 1.3081,-1.5401 1.3081,-2.7832 0,-0.9463 -0.5566,-2.7183 -1.6699,-5.3159 -1.3545,-3.2286 -2.3379,-5.8077 -2.9502,-7.7373 -1.1133,-3.544 -1.6699,-6.9117 -1.6699,-10.1031 0,-8.2011 2.3935,-12.3017 7.1806,-12.3017 4.8057,0 7.2085,3.646 7.2085,10.938 0,0.538 -0.269,0.8071 -0.8071,0.8071 h -2.978 c -0.5196,0 -0.7793,-0.2691 -0.7793,-0.8071 0,-6.0674 -0.8814,-9.1011 -2.6441,-9.1011 -1.707,0 -2.5605,3.4883 -2.5605,10.4648 0,0.6494 0.1206,2.1709 0.3618,4.5645 0.3711,-0.9092 1.0112,-1.6421 1.9204,-2.1988 0.9092,-0.5751 1.8833,-0.8627 2.9224,-0.8627 1.3916,0 2.5141,0.4917 3.3676,1.4751 0.7979,1.0205 1.1968,2.2543 1.1968,3.7016 v 2.6162 c 0,0.5381 -0.269,0.8072 -0.8071,0.8072 h -2.978 c -0.5196,0 -0.7793,-0.2691 -0.7793,-0.8072 v -2.0595 c 0,-0.5938 -0.2134,-1.104 -0.6402,-1.5308 -0.4082,-0.4082 -0.9184,-0.6123 -1.5307,-0.6123 -1.4102,0 -2.1153,0.7143 -2.1153,2.1431 0,1.0761 0.4175,3.1264 1.2525,6.1508 0.8349,3.0059 1.2524,5.3067 1.2524,6.9024 0,2.6719 -0.7051,4.518 -2.1152,5.5386 1.9853,-0.7979 3.2099,-2.4493 3.6738,-4.9542 0.1485,-0.872 0.2227,-3.3212 0.2227,-7.3476 0,-0.5752 0.2597,-0.8628 0.7793,-0.8628 h 2.978 c 0.5381,0 0.8071,0.2876 0.8071,0.8628 0,2.8018 -0.8813,5.687 -2.644,8.6558 -2.0039,3.3769 -4.3233,5.0654 -6.958,5.0654 z M 60.1617,53.6289 V 35.4268 c 0,-0.4082 0.2598,-0.6495 0.7793,-0.7237 h 2.978 c 0.5752,0 0.8628,0.2412 0.8628,0.7237 V 72.2485 C 64.7818,72.7495 64.4942,73 63.919,73 H 60.941 C 60.4215,72.9258 60.1617,72.6753 60.1617,72.2485 V 57.6646 c 0,-1.336 -0.5288,-2.4214 -1.5864,-3.2564 -1.0391,-0.835 -2.2451,-1.2524 -3.6182,-1.2524 h -3.813 C 50.6061,53.0815 50.337,52.8403 50.337,52.4321 V 35.4268 c 0,-0.4082 0.2691,-0.6495 0.8071,-0.7237 h 2.9781 c 0.5566,0 0.8349,0.2412 0.8349,0.7237 v 15.5581 c 0,0.4267 0.2691,0.6772 0.8072,0.7514 1.6699,0 3.1357,0.6309 4.3974,1.8926 z M 79.3046,73.334 c -1.2061,0 -2.2637,-0.2598 -3.1729,-0.7793 -1.0761,-0.6494 -1.6142,-1.5493 -1.6142,-2.6997 0,-0.6865 0.269,-1.2896 0.8071,-1.8091 0.501,-0.5381 1.1133,-0.8071 1.8369,-0.8071 0.7237,0 1.3545,0.2412 1.8926,0.7236 0.5566,0.4639 0.835,1.0576 0.835,1.7813 0,0.9462 -0.3247,1.707 -0.9742,2.2822 h 0.5845 c 0.8721,-0.6123 1.3081,-1.5401 1.3081,-2.7832 0,-0.9463 -0.5566,-2.7183 -1.6699,-5.3159 -1.3545,-3.2286 -2.3379,-5.8077 -2.9502,-7.7373 -1.1133,-3.544 -1.6699,-6.9117 -1.6699,-10.1031 0,-8.2011 2.3935,-12.3017 7.1807,-12.3017 4.8056,0 7.2084,3.646 7.2084,10.938 0,0.538 -0.269,0.8071 -0.8071,0.8071 h -2.978 c -0.5195,0 -0.7793,-0.2691 -0.7793,-0.8071 0,-6.0674 -0.8814,-9.1011 -2.644,-9.1011 -1.7071,0 -2.5606,3.4883 -2.5606,10.4648 0,0.6494 0.1206,2.1709 0.3618,4.5645 0.3711,-0.9092 1.0113,-1.6421 1.9204,-2.1988 0.9092,-0.5751 1.8833,-0.8627 2.9224,-0.8627 1.3916,0 2.5142,0.4917 3.3677,1.4751 0.7978,1.0205 1.1967,2.2543 1.1967,3.7016 v 2.6162 c 0,0.5381 -0.269,0.8072 -0.8071,0.8072 h -2.978 c -0.5195,0 -0.7793,-0.2691 -0.7793,-0.8072 v -2.0595 c 0,-0.5938 -0.2134,-1.104 -0.6401,-1.5308 -0.4082,-0.4082 -0.9185,-0.6123 -1.5308,-0.6123 -1.4102,0 -2.1152,0.7143 -2.1152,2.1431 0,1.0761 0.4174,3.1264 1.2524,6.1508 0.835,3.0059 1.2524,5.3067 1.2524,6.9024 0,2.6719 -0.705,4.518 -2.1152,5.5386 1.9854,-0.7979 3.21,-2.4493 3.6738,-4.9542 0.1485,-0.872 0.2227,-3.3212 0.2227,-7.3476 0,-0.5752 0.2598,-0.8628 0.7793,-0.8628 h 2.978 c 0.5381,0 0.8071,0.2876 0.8071,0.8628 0,2.8018 -0.8813,5.687 -2.644,8.6558 -2.0039,3.3769 -4.3232,5.0654 -6.958,5.0654 z M 113.477,52.4321 c 0,0.4825 -0.288,0.7237 -0.863,0.7237 h -3.813 c -1.373,0 -2.57,0.4174 -3.59,1.2524 -1.058,0.835 -1.587,1.9204 -1.587,3.2564 v 14.5839 c 0,0.501 -0.287,0.7515 -0.863,0.7515 H 99.8112 C 99.2731,72.9258 99.0041,72.6753 99.0041,72.2485 V 35.4268 c 0,-0.4082 0.269,-0.6495 0.8071,-0.7237 h 12.8028 c 0.575,0 0.863,0.2412 0.863,0.7237 z m -5.539,-0.6958 c 0.575,0 0.863,-0.2505 0.863,-0.7514 V 36.874 c 0,-0.501 -0.288,-0.7514 -0.863,-0.7514 h -3.534 c -0.52,0.0742 -0.78,0.3247 -0.78,0.7514 v 16.7549 c 1.169,-1.2617 2.607,-1.8926 4.314,-1.8926 z m 25.043,-3.646 -4.258,8.3775 c -0.612,1.1875 -0.918,2.2544 -0.918,3.2007 v 12.58 c 0,0.501 -0.288,0.7515 -0.863,0.7515 h -2.95 c -0.538,-0.0742 -0.807,-0.3247 -0.807,-0.7515 V 35.4268 c 0,-0.4082 0.269,-0.6495 0.807,-0.7237 h 2.95 c 0.575,0 0.863,0.2412 0.863,0.7237 v 19.5659 l 4.202,-8.7393 c 0.65,-1.3174 0.974,-2.375 0.974,-3.1728 v -7.6538 c 0,-0.4082 0.269,-0.6495 0.808,-0.7237 h 2.95 c 0.575,0 0.863,0.2412 0.863,0.7237 v 36.8217 c 0,0.501 -0.288,0.7515 -0.863,0.7515 h -2.95 c -0.539,-0.0742 -0.808,-0.3247 -0.808,-0.7515 z m 20.117,-0.334 c 1.707,0 3.155,0.6216 4.342,1.8648 V 36.874 c 0,-0.4267 -0.269,-0.6772 -0.807,-0.7514 h -3.535 c -0.556,0 -0.835,0.2504 -0.835,0.7514 v 10.1309 c 0,0.501 0.279,0.7514 0.835,0.7514 z m 4.342,7.5147 c -1.855,0.5381 -3.265,2.9131 -4.23,7.125 -0.631,2.9316 -0.947,6.1787 -0.947,9.7412 0,0.5752 -0.269,0.8628 -0.807,0.8628 h -3.033 c -0.52,0 -0.78,-0.2876 -0.78,-0.8628 0,-3.6738 0.78,-7.3384 2.338,-10.9936 1.893,-4.4532 4.379,-6.9581 7.459,-7.5147 0,-1.3359 -0.51,-2.4214 -1.531,-3.2563 -1.076,-0.7979 -2.291,-1.1968 -3.646,-1.1968 h -3.84 c -0.557,0 -0.835,-0.2505 -0.835,-0.7515 V 35.4268 c 0,-0.4825 0.278,-0.7237 0.835,-0.7237 h 12.83 c 0.538,0.0742 0.807,0.3155 0.807,0.7237 v 36.8217 c 0,0.4268 -0.269,0.6773 -0.807,0.7515 h -2.95 c -0.575,0 -0.863,-0.2505 -0.863,-0.7515 z"
       inkscape:connector-curvature="0"
       style="fill:#caa971" />
    <path
       id="path6"
       d="m 7.57325,82.98 h -3.094 V 89 h -1.12 v -7 h 5.334 v 7 h -1.12 z M 10.8514,82 h 0.77 l 0.21,0.84 h 0.056 c 0.2147,-0.3267 0.49,-0.574 0.826,-0.742 0.3454,-0.1773 0.7374,-0.266 1.176,-0.266 0.9334,0 1.6287,0.2753 2.086,0.826 0.4574,0.5507 0.686,1.4513 0.686,2.702 0,0.588 -0.0793,1.12 -0.238,1.596 -0.1493,0.4667 -0.364,0.8633 -0.644,1.19 -0.28,0.3267 -0.6206,0.5787 -1.022,0.756 -0.392,0.1773 -0.8306,0.266 -1.316,0.266 -0.3453,0 -0.6206,-0.0233 -0.826,-0.07 -0.196,-0.0373 -0.4106,-0.1073 -0.644,-0.21 V 91.8 h -1.12 z m 2.828,0.812 c -0.476,0 -0.854,0.126 -1.134,0.378 -0.2706,0.2427 -0.462,0.616 -0.574,1.12 v 3.472 c 0.168,0.1307 0.3594,0.2333 0.574,0.308 0.2147,0.0653 0.4994,0.098 0.854,0.098 0.644,0 1.1527,-0.238 1.526,-0.714 0.3827,-0.4853 0.574,-1.1947 0.574,-2.128 0,-0.3827 -0.0326,-0.728 -0.098,-1.036 -0.0653,-0.3173 -0.1726,-0.5833 -0.322,-0.798 -0.14,-0.224 -0.3266,-0.3967 -0.56,-0.518 -0.224,-0.1213 -0.504,-0.182 -0.84,-0.182 z m 4.6343,-0.294 c 0.3546,-0.2147 0.7653,-0.3733 1.232,-0.476 0.476,-0.1027 0.9706,-0.154 1.484,-0.154 0.4853,0 0.8726,0.0653 1.162,0.196 0.2986,0.1307 0.5226,0.3033 0.672,0.518 0.1586,0.2053 0.2613,0.434 0.308,0.686 0.056,0.252 0.084,0.504 0.084,0.756 0,0.56 -0.014,1.106 -0.042,1.638 -0.028,0.532 -0.042,1.036 -0.042,1.512 0,0.3453 0.014,0.672 0.042,0.98 0.028,0.308 0.0793,0.5927 0.154,0.854 h -0.826 l -0.294,-0.98 h -0.07 c -0.084,0.1307 -0.1914,0.2613 -0.322,0.392 -0.1214,0.1213 -0.2707,0.2333 -0.448,0.336 -0.1774,0.0933 -0.3827,0.1727 -0.616,0.238 -0.2334,0.0653 -0.4994,0.098 -0.798,0.098 -0.2987,0 -0.5787,-0.0467 -0.84,-0.14 -0.252,-0.0933 -0.4714,-0.224 -0.658,-0.392 -0.1867,-0.1773 -0.336,-0.3873 -0.448,-0.63 -0.1027,-0.2427 -0.154,-0.518 -0.154,-0.826 0,-0.4107 0.084,-0.7513 0.252,-1.022 0.168,-0.28 0.4013,-0.4993 0.7,-0.658 0.308,-0.168 0.672,-0.2847 1.092,-0.35 0.4293,-0.0747 0.9006,-0.112 1.414,-0.112 0.1306,0 0.2566,0 0.378,0 0.1306,0 0.2613,0.0093 0.392,0.028 0.028,-0.28 0.042,-0.532 0.042,-0.756 0,-0.5133 -0.1027,-0.8727 -0.308,-1.078 -0.2054,-0.2053 -0.5787,-0.308 -1.12,-0.308 -0.1587,0 -0.3314,0.014 -0.518,0.042 -0.1774,0.0187 -0.364,0.0513 -0.56,0.098 -0.1867,0.0373 -0.3687,0.0887 -0.546,0.154 -0.168,0.056 -0.3174,0.1213 -0.448,0.196 z m 1.988,5.614 c 0.2613,0 0.4946,-0.0327 0.7,-0.098 0.2053,-0.0747 0.3826,-0.1633 0.532,-0.266 0.1493,-0.112 0.2706,-0.2333 0.364,-0.364 0.1026,-0.1307 0.1773,-0.2567 0.224,-0.378 v -1.162 c -0.1307,-0.0093 -0.266,-0.014 -0.406,-0.014 -0.1307,-0.0093 -0.2614,-0.014 -0.392,-0.014 -0.2894,0 -0.574,0.0187 -0.854,0.056 -0.2707,0.028 -0.5134,0.0887 -0.728,0.182 -0.2054,0.084 -0.3734,0.2053 -0.504,0.364 -0.1214,0.1493 -0.182,0.3407 -0.182,0.574 0,0.3267 0.1166,0.5973 0.35,0.812 0.2333,0.2053 0.532,0.308 0.896,0.308 z m 5.0693,-6.118 c 0.3266,-0.0187 0.6673,-0.042 1.022,-0.07 0.364,-0.028 0.812,-0.042 1.344,-0.042 0.924,0 1.5866,0.1447 1.988,0.434 0.4013,0.28 0.602,0.7093 0.602,1.288 0,0.3267 -0.098,0.6487 -0.294,0.966 -0.1867,0.308 -0.4994,0.5367 -0.938,0.686 v 0.056 c 0.5506,0.1027 0.938,0.294 1.162,0.574 0.224,0.28 0.336,0.6533 0.336,1.12 0,0.728 -0.2614,1.2553 -0.784,1.582 -0.5227,0.3267 -1.3067,0.49 -2.352,0.49 -0.392,0 -0.756,-0.014 -1.092,-0.042 -0.336,-0.0187 -0.6674,-0.042 -0.994,-0.07 z m 1.12,6.048 c 0.1773,0.0187 0.35,0.0327 0.518,0.042 0.1773,0.0093 0.3826,0.014 0.616,0.014 0.6253,0 1.0873,-0.0887 1.386,-0.266 0.308,-0.1773 0.462,-0.4807 0.462,-0.91 0,-0.336 -0.1307,-0.6067 -0.392,-0.812 -0.252,-0.2147 -0.7047,-0.322 -1.358,-0.322 h -1.232 z m 1.372,-3.108 c 0.168,0 0.3313,-0.028 0.49,-0.084 0.1586,-0.056 0.2986,-0.1307 0.42,-0.224 0.1306,-0.1027 0.2333,-0.2193 0.308,-0.35 0.084,-0.1307 0.126,-0.2707 0.126,-0.42 0,-0.3733 -0.112,-0.63 -0.336,-0.77 -0.224,-0.1493 -0.616,-0.224 -1.176,-0.224 -0.2987,0 -0.5367,0.0047 -0.714,0.014 -0.168,0.0093 -0.3314,0.0187 -0.49,0.028 v 2.03 z m 4.1023,0.546 c 0,-1.1853 0.2613,-2.0907 0.784,-2.716 0.532,-0.6347 1.2927,-0.952 2.282,-0.952 0.5227,0 0.9753,0.0887 1.358,0.266 0.392,0.168 0.714,0.4153 0.966,0.742 0.252,0.3173 0.4387,0.7047 0.56,1.162 0.1213,0.448 0.182,0.9473 0.182,1.498 0,1.1853 -0.266,2.0953 -0.798,2.73 -0.5227,0.6253 -1.2787,0.938 -2.268,0.938 -0.5227,0 -0.98,-0.084 -1.372,-0.252 -0.3827,-0.1773 -0.7,-0.4247 -0.952,-0.742 -0.252,-0.3267 -0.4387,-0.714 -0.56,-1.162 -0.1213,-0.4573 -0.182,-0.9613 -0.182,-1.512 z m 1.162,0 c 0,0.3547 0.0327,0.6953 0.098,1.022 0.0747,0.3267 0.1867,0.6113 0.336,0.854 0.1493,0.2427 0.3453,0.4387 0.588,0.588 0.2427,0.1493 0.5367,0.224 0.882,0.224 1.2693,0.0093 1.904,-0.8867 1.904,-2.688 0,-0.364 -0.0373,-0.7093 -0.112,-1.036 -0.0653,-0.3267 -0.1727,-0.6113 -0.322,-0.854 -0.1493,-0.2427 -0.3453,-0.434 -0.588,-0.574 -0.2427,-0.1493 -0.5367,-0.224 -0.882,-0.224 -1.2693,-0.0093 -1.904,0.8867 -1.904,2.688 z m 11.5099,3.038 c -0.28,0.2053 -0.6114,0.3593 -0.994,0.462 -0.3827,0.112 -0.784,0.168 -1.204,0.168 -0.5414,0 -0.9987,-0.084 -1.372,-0.252 -0.3734,-0.1773 -0.6814,-0.4247 -0.924,-0.742 -0.2334,-0.3267 -0.406,-0.714 -0.518,-1.162 -0.1027,-0.4573 -0.154,-0.9613 -0.154,-1.512 0,-1.1853 0.2613,-2.0907 0.784,-2.716 0.5226,-0.6347 1.274,-0.952 2.254,-0.952 0.448,0 0.826,0.0373 1.134,0.112 0.3173,0.0653 0.602,0.1633 0.854,0.294 l -0.322,0.966 c -0.2147,-0.1213 -0.4527,-0.2147 -0.714,-0.28 -0.2614,-0.0747 -0.5414,-0.112 -0.84,-0.112 -1.3254,0 -1.988,0.896 -1.988,2.688 0,0.3547 0.0326,0.6953 0.098,1.022 0.0746,0.3173 0.1913,0.602 0.35,0.854 0.168,0.2427 0.3826,0.4387 0.644,0.588 0.2706,0.1493 0.602,0.224 0.994,0.224 0.336,0 0.6346,-0.0513 0.896,-0.154 0.2706,-0.1027 0.49,-0.2193 0.658,-0.35 z m 5.2947,-5.558 h -2.03 c -0.028,0.392 -0.056,0.8167 -0.084,1.274 -0.028,0.448 -0.07,0.9007 -0.126,1.358 -0.056,0.448 -0.1307,0.882 -0.224,1.302 -0.0933,0.4107 -0.2147,0.7747 -0.364,1.092 -0.14,0.3173 -0.3173,0.574 -0.532,0.77 -0.2053,0.1867 -0.4527,0.28 -0.742,0.28 -0.1773,0 -0.3313,-0.0093 -0.462,-0.028 -0.1307,-0.0187 -0.2473,-0.0513 -0.35,-0.098 l 0.168,-0.938 c 0.112,0.0373 0.2333,0.056 0.364,0.056 0.1867,0 0.3547,-0.0793 0.504,-0.238 0.1493,-0.1587 0.28,-0.4573 0.392,-0.896 0.112,-0.448 0.2053,-1.064 0.28,-1.848 0.0747,-0.784 0.126,-1.806 0.154,-3.066 h 4.172 v 7 h -1.12 z m 3.163,-0.462 c 0.3547,-0.2147 0.7653,-0.3733 1.232,-0.476 0.476,-0.1027 0.9707,-0.154 1.484,-0.154 0.4853,0 0.8727,0.0653 1.162,0.196 0.2987,0.1307 0.5227,0.3033 0.672,0.518 0.1587,0.2053 0.2613,0.434 0.308,0.686 0.056,0.252 0.084,0.504 0.084,0.756 0,0.56 -0.014,1.106 -0.042,1.638 -0.028,0.532 -0.042,1.036 -0.042,1.512 0,0.3453 0.014,0.672 0.042,0.98 0.028,0.308 0.0793,0.5927 0.154,0.854 h -0.826 l -0.294,-0.98 h -0.07 c -0.084,0.1307 -0.1913,0.2613 -0.322,0.392 -0.1213,0.1213 -0.2707,0.2333 -0.448,0.336 -0.1773,0.0933 -0.3827,0.1727 -0.616,0.238 -0.2333,0.0653 -0.4993,0.098 -0.798,0.098 -0.2987,0 -0.5787,-0.0467 -0.84,-0.14 -0.252,-0.0933 -0.4713,-0.224 -0.658,-0.392 -0.1867,-0.1773 -0.336,-0.3873 -0.448,-0.63 -0.1027,-0.2427 -0.154,-0.518 -0.154,-0.826 0,-0.4107 0.084,-0.7513 0.252,-1.022 0.168,-0.28 0.4013,-0.4993 0.7,-0.658 0.308,-0.168 0.672,-0.2847 1.092,-0.35 0.4293,-0.0747 0.9007,-0.112 1.414,-0.112 0.1307,0 0.2567,0 0.378,0 0.1307,0 0.2613,0.0093 0.392,0.028 0.028,-0.28 0.042,-0.532 0.042,-0.756 0,-0.5133 -0.1027,-0.8727 -0.308,-1.078 -0.2053,-0.2053 -0.5787,-0.308 -1.12,-0.308 -0.1587,0 -0.3313,0.014 -0.518,0.042 -0.1773,0.0187 -0.364,0.0513 -0.56,0.098 -0.1867,0.0373 -0.3687,0.0887 -0.546,0.154 -0.168,0.056 -0.3173,0.1213 -0.448,0.196 z m 1.988,5.614 c 0.2613,0 0.4947,-0.0327 0.7,-0.098 0.2053,-0.0747 0.3827,-0.1633 0.532,-0.266 0.1493,-0.112 0.2707,-0.2333 0.364,-0.364 0.1027,-0.1307 0.1773,-0.2567 0.224,-0.378 v -1.162 c -0.1307,-0.0093 -0.266,-0.014 -0.406,-0.014 -0.1307,-0.0093 -0.2613,-0.014 -0.392,-0.014 -0.2893,0 -0.574,0.0187 -0.854,0.056 -0.2707,0.028 -0.5133,0.0887 -0.728,0.182 -0.2053,0.084 -0.3733,0.2053 -0.504,0.364 -0.1213,0.1493 -0.182,0.3407 -0.182,0.574 0,0.3267 0.1167,0.5973 0.35,0.812 0.2333,0.2053 0.532,0.308 0.896,0.308 z m 5.0693,-6.118 c 0.3267,-0.0187 0.6674,-0.042 1.022,-0.07 0.364,-0.028 0.812,-0.042 1.344,-0.042 0.924,0 1.5867,0.1447 1.988,0.434 0.4014,0.28 0.602,0.7093 0.602,1.288 0,0.3267 -0.098,0.6487 -0.294,0.966 -0.1866,0.308 -0.4993,0.5367 -0.938,0.686 v 0.056 c 0.5507,0.1027 0.938,0.294 1.162,0.574 0.224,0.28 0.336,0.6533 0.336,1.12 0,0.728 -0.2613,1.2553 -0.784,1.582 -0.5226,0.3267 -1.3066,0.49 -2.352,0.49 -0.392,0 -0.756,-0.014 -1.092,-0.042 -0.336,-0.0187 -0.6673,-0.042 -0.994,-0.07 z m 1.12,6.048 c 0.1774,0.0187 0.35,0.0327 0.518,0.042 0.1774,0.0093 0.3827,0.014 0.616,0.014 0.6254,0 1.0874,-0.0887 1.386,-0.266 0.308,-0.1773 0.462,-0.4807 0.462,-0.91 0,-0.336 -0.1306,-0.6067 -0.392,-0.812 -0.252,-0.2147 -0.7046,-0.322 -1.358,-0.322 h -1.232 z m 1.372,-3.108 c 0.168,0 0.3314,-0.028 0.49,-0.084 0.1587,-0.056 0.2987,-0.1307 0.42,-0.224 0.1307,-0.1027 0.2334,-0.2193 0.308,-0.35 0.084,-0.1307 0.126,-0.2707 0.126,-0.42 0,-0.3733 -0.112,-0.63 -0.336,-0.77 -0.224,-0.1493 -0.616,-0.224 -1.176,-0.224 -0.2986,0 -0.5366,0.0047 -0.714,0.014 -0.168,0.0093 -0.3313,0.0187 -0.49,0.028 v 2.03 z m 8.7783,0.952 h -3.164 V 89 h -1.12 v -7 h 1.12 v 2.926 h 3.164 V 82 h 1.12 v 7 h -1.12 z m 4.3966,2.114 c 0.3453,0.056 0.6767,0.084 0.994,0.084 0.588,0 0.9987,-0.112 1.232,-0.336 0.2333,-0.2333 0.35,-0.56 0.35,-0.98 0,-0.3733 -0.1167,-0.6813 -0.35,-0.924 -0.224,-0.2427 -0.6207,-0.364 -1.19,-0.364 -0.1587,0 -0.3313,0.0047 -0.518,0.014 -0.1867,0.0093 -0.3593,0.0373 -0.518,0.084 z m 0,-3.346 c 0.224,-0.0373 0.4387,-0.0607 0.644,-0.07 0.2053,-0.0187 0.4013,-0.028 0.588,-0.028 0.476,0 0.8727,0.056 1.19,0.168 0.3267,0.1027 0.588,0.2473 0.784,0.434 0.196,0.1867 0.3313,0.4107 0.406,0.672 0.084,0.252 0.126,0.5227 0.126,0.812 0,0.8493 -0.238,1.4653 -0.714,1.848 -0.4667,0.3827 -1.2273,0.574 -2.282,0.574 -0.5973,0 -1.218,-0.028 -1.862,-0.084 v -7 h 1.12 z M 80.6631,82 h 1.12 v 7 h -1.12 z m 8.3882,6.44 c -0.28,0.224 -0.6347,0.4013 -1.064,0.532 -0.42,0.1307 -0.868,0.196 -1.344,0.196 -0.532,0 -0.994,-0.084 -1.386,-0.252 -0.392,-0.1773 -0.714,-0.4247 -0.966,-0.742 -0.252,-0.3267 -0.4387,-0.714 -0.56,-1.162 -0.1214,-0.448 -0.182,-0.952 -0.182,-1.512 0,-1.1947 0.266,-2.1047 0.798,-2.73 0.532,-0.6253 1.2926,-0.938 2.282,-0.938 0.3173,0 0.6346,0.0373 0.952,0.112 0.3173,0.0653 0.602,0.196 0.854,0.392 0.252,0.196 0.4573,0.476 0.616,0.84 0.1586,0.3547 0.238,0.826 0.238,1.414 0,0.308 -0.028,0.6487 -0.084,1.022 h -4.494 c 0,0.4107 0.042,0.7747 0.126,1.092 0.084,0.3173 0.2146,0.588 0.392,0.812 0.1773,0.2147 0.406,0.3827 0.686,0.504 0.2893,0.112 0.6393,0.168 1.05,0.168 0.3173,0 0.6346,-0.056 0.952,-0.168 0.3173,-0.112 0.5553,-0.2427 0.714,-0.392 z m -2.408,-5.628 c -0.5507,0 -0.994,0.1447 -1.33,0.434 -0.3267,0.2893 -0.5227,0.784 -0.588,1.484 h 3.472 c 0,-0.7093 -0.1354,-1.204 -0.406,-1.484 -0.2707,-0.2893 -0.6534,-0.434 -1.148,-0.434 z m 13.5717,6.356 c -0.5039,0 -0.9379,-0.0747 -1.3019,-0.224 -0.3547,-0.1587 -0.6487,-0.378 -0.882,-0.658 -0.224,-0.2893 -0.3967,-0.6347 -0.518,-1.036 -0.112,-0.4107 -0.182,-0.8587 -0.21,-1.344 h -1.4 V 89 h -1.12 v -7 h 1.12 v 2.926 h 1.414 c 0.0746,-0.9987 0.3453,-1.764 0.812,-2.296 0.476,-0.532 1.1806,-0.798 2.1139,-0.798 0.513,0 0.947,0.0887 1.302,0.266 0.364,0.168 0.658,0.4153 0.882,0.742 0.233,0.3173 0.401,0.7047 0.504,1.162 0.103,0.448 0.154,0.9473 0.154,1.498 0,1.1853 -0.238,2.0953 -0.714,2.73 -0.467,0.6253 -1.185,0.938 -2.156,0.938 z M 98.4091,85.5 c 0,0.364 0.028,0.7093 0.084,1.036 0.056,0.3267 0.154,0.616 0.294,0.868 0.14,0.2427 0.3266,0.434 0.56,0.574 0.2426,0.14 0.5413,0.21 0.8959,0.21 0.597,0 1.027,-0.2147 1.288,-0.644 0.261,-0.4387 0.392,-1.12 0.392,-2.044 0,-0.364 -0.028,-0.7093 -0.084,-1.036 -0.047,-0.3267 -0.135,-0.6113 -0.266,-0.854 -0.131,-0.252 -0.303,-0.448 -0.518,-0.588 -0.215,-0.14 -0.49,-0.21 -0.826,-0.21 -0.6439,0 -1.1106,0.2193 -1.3999,0.658 -0.28,0.4293 -0.42,1.106 -0.42,2.03 z m 6.4369,-3.486 c 0.326,-0.0187 0.667,-0.042 1.022,-0.07 0.364,-0.028 0.812,-0.042 1.344,-0.042 0.924,0 1.586,0.1447 1.988,0.434 0.401,0.28 0.602,0.7093 0.602,1.288 0,0.3267 -0.098,0.6487 -0.294,0.966 -0.187,0.308 -0.5,0.5367 -0.938,0.686 v 0.056 c 0.55,0.1027 0.938,0.294 1.162,0.574 0.224,0.28 0.336,0.6533 0.336,1.12 0,0.728 -0.262,1.2553 -0.784,1.582 -0.523,0.3267 -1.307,0.49 -2.352,0.49 -0.392,0 -0.756,-0.014 -1.092,-0.042 -0.336,-0.0187 -0.668,-0.042 -0.994,-0.07 z m 1.12,6.048 c 0.177,0.0187 0.35,0.0327 0.518,0.042 0.177,0.0093 0.382,0.014 0.616,0.014 0.625,0 1.087,-0.0887 1.386,-0.266 0.308,-0.1773 0.462,-0.4807 0.462,-0.91 0,-0.336 -0.131,-0.6067 -0.392,-0.812 -0.252,-0.2147 -0.705,-0.322 -1.358,-0.322 h -1.232 z m 1.372,-3.108 c 0.168,0 0.331,-0.028 0.49,-0.084 0.158,-0.056 0.298,-0.1307 0.42,-0.224 0.13,-0.1027 0.233,-0.2193 0.308,-0.35 0.084,-0.1307 0.126,-0.2707 0.126,-0.42 0,-0.3733 -0.112,-0.63 -0.336,-0.77 -0.224,-0.1493 -0.616,-0.224 -1.176,-0.224 -0.299,0 -0.537,0.0047 -0.714,0.014 -0.168,0.0093 -0.332,0.0187 -0.49,0.028 v 2.03 z m 9.604,3.486 c -0.28,0.224 -0.635,0.4013 -1.064,0.532 -0.42,0.1307 -0.868,0.196 -1.344,0.196 -0.532,0 -0.994,-0.084 -1.386,-0.252 -0.392,-0.1773 -0.714,-0.4247 -0.966,-0.742 -0.252,-0.3267 -0.439,-0.714 -0.56,-1.162 -0.121,-0.448 -0.182,-0.952 -0.182,-1.512 0,-1.1947 0.266,-2.1047 0.798,-2.73 0.532,-0.6253 1.293,-0.938 2.282,-0.938 0.317,0 0.635,0.0373 0.952,0.112 0.317,0.0653 0.602,0.196 0.854,0.392 0.252,0.196 0.457,0.476 0.616,0.84 0.159,0.3547 0.238,0.826 0.238,1.414 0,0.308 -0.028,0.6487 -0.084,1.022 h -4.494 c 0,0.4107 0.042,0.7747 0.126,1.092 0.084,0.3173 0.215,0.588 0.392,0.812 0.177,0.2147 0.406,0.3827 0.686,0.504 0.289,0.112 0.639,0.168 1.05,0.168 0.317,0 0.635,-0.056 0.952,-0.168 0.317,-0.112 0.555,-0.2427 0.714,-0.392 z m -2.408,-5.628 c -0.551,0 -0.994,0.1447 -1.33,0.434 -0.327,0.2893 -0.523,0.784 -0.588,1.484 h 3.472 c 0,-0.7093 -0.135,-1.204 -0.406,-1.484 -0.271,-0.2893 -0.653,-0.434 -1.148,-0.434 z m 7.859,0.168 h -2.03 c -0.028,0.392 -0.056,0.8167 -0.084,1.274 -0.028,0.448 -0.07,0.9007 -0.126,1.358 -0.056,0.448 -0.131,0.882 -0.224,1.302 -0.094,0.4107 -0.215,0.7747 -0.364,1.092 -0.14,0.3173 -0.318,0.574 -0.532,0.77 -0.206,0.1867 -0.453,0.28 -0.742,0.28 -0.178,0 -0.332,-0.0093 -0.462,-0.028 -0.131,-0.0187 -0.248,-0.0513 -0.35,-0.098 l 0.168,-0.938 c 0.112,0.0373 0.233,0.056 0.364,0.056 0.186,0 0.354,-0.0793 0.504,-0.238 0.149,-0.1587 0.28,-0.4573 0.392,-0.896 0.112,-0.448 0.205,-1.064 0.28,-1.848 0.074,-0.784 0.126,-1.806 0.154,-3.066 h 4.172 v 7 h -1.12 z m 7.643,1.876 0.042,-0.868 h -0.042 l -0.574,0.896 -3.15,4.116 h -0.644 v -7 h 1.12 v 4.27 l -0.042,0.826 h 0.056 l 0.546,-0.868 3.15,-4.228 h 0.658 v 7 h -1.12 z M 133.31,82 h 0.77 l 0.21,0.84 h 0.056 c 0.215,-0.3267 0.49,-0.574 0.826,-0.742 0.346,-0.1773 0.738,-0.266 1.176,-0.266 0.934,0 1.629,0.2753 2.086,0.826 0.458,0.5507 0.686,1.4513 0.686,2.702 0,0.588 -0.079,1.12 -0.238,1.596 -0.149,0.4667 -0.364,0.8633 -0.644,1.19 -0.28,0.3267 -0.62,0.5787 -1.022,0.756 -0.392,0.1773 -0.83,0.266 -1.316,0.266 -0.345,0 -0.62,-0.0233 -0.826,-0.07 -0.196,-0.0373 -0.41,-0.1073 -0.644,-0.21 V 91.8 h -1.12 z m 2.828,0.812 c -0.476,0 -0.854,0.126 -1.134,0.378 -0.27,0.2427 -0.462,0.616 -0.574,1.12 v 3.472 c 0.168,0.1307 0.36,0.2333 0.574,0.308 0.215,0.0653 0.5,0.098 0.854,0.098 0.644,0 1.153,-0.238 1.526,-0.714 0.383,-0.4853 0.574,-1.1947 0.574,-2.128 0,-0.3827 -0.032,-0.728 -0.098,-1.036 -0.065,-0.3173 -0.172,-0.5833 -0.322,-0.798 -0.14,-0.224 -0.326,-0.3967 -0.56,-0.518 -0.224,-0.1213 -0.504,-0.182 -0.84,-0.182 z m 9.031,3.094 h -3.164 V 89 h -1.12 v -7 h 1.12 v 2.926 h 3.164 V 82 h 1.12 v 7 h -1.12 z m 4.396,2.114 c 0.346,0.056 0.677,0.084 0.994,0.084 0.588,0 0.999,-0.112 1.232,-0.336 0.234,-0.2333 0.35,-0.56 0.35,-0.98 0,-0.3733 -0.116,-0.6813 -0.35,-0.924 -0.224,-0.2427 -0.62,-0.364 -1.19,-0.364 -0.158,0 -0.331,0.0047 -0.518,0.014 -0.186,0.0093 -0.359,0.0373 -0.518,0.084 z m 0,-3.346 c 0.224,-0.0373 0.439,-0.0607 0.644,-0.07 0.206,-0.0187 0.402,-0.028 0.588,-0.028 0.476,0 0.873,0.056 1.19,0.168 0.327,0.1027 0.588,0.2473 0.784,0.434 0.196,0.1867 0.332,0.4107 0.406,0.672 0.084,0.252 0.126,0.5227 0.126,0.812 0,0.8493 -0.238,1.4653 -0.714,1.848 -0.466,0.3827 -1.227,0.574 -2.282,0.574 -0.597,0 -1.218,-0.028 -1.862,-0.084 v -7 h 1.12 z M 154.409,82 h 1.12 v 7 h -1.12 z m 8.388,6.44 c -0.28,0.224 -0.634,0.4013 -1.064,0.532 -0.42,0.1307 -0.868,0.196 -1.344,0.196 -0.532,0 -0.994,-0.084 -1.386,-0.252 -0.392,-0.1773 -0.714,-0.4247 -0.966,-0.742 -0.252,-0.3267 -0.438,-0.714 -0.56,-1.162 -0.121,-0.448 -0.182,-0.952 -0.182,-1.512 0,-1.1947 0.266,-2.1047 0.798,-2.73 0.532,-0.6253 1.293,-0.938 2.282,-0.938 0.318,0 0.635,0.0373 0.952,0.112 0.318,0.0653 0.602,0.196 0.854,0.392 0.252,0.196 0.458,0.476 0.616,0.84 0.159,0.3547 0.238,0.826 0.238,1.414 0,0.308 -0.028,0.6487 -0.084,1.022 h -4.494 c 0,0.4107 0.042,0.7747 0.126,1.092 0.084,0.3173 0.215,0.588 0.392,0.812 0.178,0.2147 0.406,0.3827 0.686,0.504 0.29,0.112 0.64,0.168 1.05,0.168 0.318,0 0.635,-0.056 0.952,-0.168 0.318,-0.112 0.556,-0.2427 0.714,-0.392 z m -2.408,-5.628 c -0.55,0 -0.994,0.1447 -1.33,0.434 -0.326,0.2893 -0.522,0.784 -0.588,1.484 h 3.472 c 0,-0.7093 -0.135,-1.204 -0.406,-1.484 -0.27,-0.2893 -0.653,-0.434 -1.148,-0.434 z m -96.7028,14.044 0.042,-0.868 h -0.042 l -0.574,0.896 -3.15,4.116 h -0.644 v -7 h 1.12 v 4.27 l -0.042,0.826 h 0.056 l 0.546,-0.868 3.15,-4.228 h 0.658 v 7 h -1.12 z m 3.9466,1.022 v -0.91 h 0.98 c 0.168,0 0.3313,-0.028 0.49,-0.084 0.168,-0.056 0.3173,-0.1307 0.448,-0.224 0.1307,-0.1027 0.2333,-0.2193 0.308,-0.35 0.084,-0.14 0.126,-0.2847 0.126,-0.434 0,-0.364 -0.126,-0.6207 -0.378,-0.77 -0.252,-0.1493 -0.63,-0.224 -1.134,-0.224 -0.364,0 -0.7,0.056 -1.008,0.168 -0.2987,0.112 -0.532,0.2193 -0.7,0.322 l -0.322,-0.868 c 0.28,-0.1587 0.6067,-0.2987 0.98,-0.42 0.3827,-0.1213 0.8353,-0.182 1.358,-0.182 1.5493,0 2.324,0.574 2.324,1.722 0,0.3267 -0.1073,0.6487 -0.322,0.966 -0.2053,0.308 -0.504,0.5273 -0.896,0.658 v 0.056 c 0.5507,0.1027 0.9333,0.2987 1.148,0.588 0.224,0.2893 0.336,0.672 0.336,1.148 0,0.2987 -0.0607,0.574 -0.182,0.826 -0.1213,0.252 -0.3033,0.471 -0.546,0.658 -0.2427,0.187 -0.5507,0.336 -0.924,0.448 -0.364,0.103 -0.7887,0.154 -1.274,0.154 -0.476,0 -0.8727,-0.042 -1.19,-0.126 -0.308,-0.084 -0.588,-0.187 -0.84,-0.308 l 0.322,-0.924 c 0.2147,0.1213 0.4713,0.2147 0.77,0.28 0.308,0.065 0.6393,0.098 0.994,0.098 0.5693,0 1.0033,-0.098 1.302,-0.294 0.2987,-0.196 0.448,-0.4947 0.448,-0.896 0,-0.336 -0.14,-0.5973 -0.42,-0.784 -0.28,-0.196 -0.742,-0.294 -1.386,-0.294 z m 11.6957,4.9 h -0.756 L 78.3625,101 h -5.264 l -0.21,1.778 h -0.756 v -2.758 h 0.826 c 0.0747,-0.1027 0.1727,-0.2847 0.294,-0.546 0.1213,-0.2707 0.238,-0.644 0.35,-1.12 0.1213,-0.4853 0.224,-1.0827 0.308,-1.792 0.0933,-0.7187 0.1493,-1.5727 0.168,-2.562 h 4.228 v 6.02 h 1.022 z m -2.142,-2.758 v -5.04 h -2.1 c -0.0187,0.392 -0.0513,0.8213 -0.098,1.288 -0.0467,0.4573 -0.112,0.9193 -0.196,1.386 -0.0747,0.4573 -0.1727,0.8913 -0.294,1.302 -0.1213,0.4107 -0.2613,0.7653 -0.42,1.064 z m 8.6382,0.42 c -0.28,0.224 -0.6346,0.401 -1.064,0.532 -0.42,0.131 -0.868,0.196 -1.344,0.196 -0.532,0 -0.994,-0.084 -1.386,-0.252 -0.392,-0.177 -0.714,-0.425 -0.966,-0.742 -0.252,-0.3267 -0.4386,-0.714 -0.56,-1.162 -0.1213,-0.448 -0.182,-0.952 -0.182,-1.512 0,-1.1947 0.266,-2.1047 0.798,-2.73 0.532,-0.6253 1.2927,-0.938 2.282,-0.938 0.3174,0 0.6347,0.0373 0.952,0.112 0.3174,0.0653 0.602,0.196 0.854,0.392 0.252,0.196 0.4574,0.476 0.616,0.84 0.1587,0.3547 0.238,0.826 0.238,1.414 0,0.308 -0.028,0.6487 -0.084,1.022 h -4.494 c 0,0.4107 0.042,0.7747 0.126,1.092 0.084,0.3173 0.2147,0.588 0.392,0.812 0.1774,0.2147 0.406,0.3827 0.686,0.504 0.2894,0.112 0.6394,0.168 1.05,0.168 0.3174,0 0.6347,-0.056 0.952,-0.168 0.3174,-0.112 0.5554,-0.2427 0.714,-0.392 z m -2.408,-5.628 c -0.5506,0 -0.994,0.1447 -1.33,0.434 -0.3266,0.2893 -0.5226,0.784 -0.588,1.484 h 3.472 c 0,-0.7093 -0.1353,-1.204 -0.406,-1.484 -0.2706,-0.2893 -0.6533,-0.434 -1.148,-0.434 z m 7.8589,0.168 h -2.03 c -0.028,0.392 -0.056,0.8167 -0.084,1.274 -0.028,0.448 -0.07,0.9007 -0.126,1.358 -0.056,0.448 -0.1306,0.882 -0.224,1.302 -0.0933,0.4107 -0.2146,0.7747 -0.364,1.092 -0.14,0.317 -0.3173,0.574 -0.532,0.77 -0.2053,0.187 -0.4526,0.28 -0.742,0.28 -0.1773,0 -0.3313,-0.009 -0.462,-0.028 -0.1306,-0.019 -0.2473,-0.051 -0.35,-0.098 l 0.168,-0.938 c 0.112,0.037 0.2334,0.056 0.364,0.056 0.1867,0 0.3547,-0.0793 0.504,-0.238 0.1494,-0.1587 0.28,-0.4573 0.392,-0.896 0.112,-0.448 0.2054,-1.064 0.28,-1.848 0.0747,-0.784 0.126,-1.806 0.154,-3.066 h 4.172 v 7 h -1.12 z m 7.6431,1.876 0.042,-0.868 h -0.042 l -0.574,0.896 -3.15,4.116 h -0.644 v -7 h 1.12 v 4.27 l -0.042,0.826 h 0.056 l 0.546,-0.868 3.15,-4.228 h 0.6583 v 7 h -1.1203 z m 6.7603,1.246 -1.078,0.168 -1.848,2.73 h -1.358 l 1.68,-2.394 0.56,-0.518 c -0.485,-0.0747 -0.9,-0.2707 -1.246,-0.588 -0.336,-0.3173 -0.504,-0.7467 -0.504,-1.288 0,-0.42 0.07,-0.7793 0.21,-1.078 0.15,-0.2987 0.36,-0.546 0.63,-0.742 0.271,-0.196 0.593,-0.336 0.966,-0.42 0.374,-0.0933 0.794,-0.14 1.26,-0.14 0.346,0 0.668,0.0233 0.966,0.07 0.299,0.0467 0.593,0.098 0.882,0.154 V 101 h -1.12 z m 0,-3.15 c -0.121,-0.0467 -0.256,-0.0793 -0.406,-0.098 -0.149,-0.028 -0.28,-0.042 -0.392,-0.042 -0.597,0 -1.054,0.1073 -1.372,0.322 -0.308,0.2147 -0.462,0.5553 -0.462,1.022 0,0.42 0.164,0.7467 0.49,0.98 0.336,0.224 0.775,0.336 1.316,0.336 0.01,0 0.024,0 0.042,0 0.019,0 0.056,0 0.112,0 0.056,0 0.136,0 0.238,0 0.103,-0.0093 0.248,-0.0187 0.434,-0.028 z"
       inkscape:connector-curvature="0"
       style="fill:#666b72" />
  </g>
  <defs
     id="defs13">
    <linearGradient
       id="paint0_linear"
       x1="85.453499"
       y1="0"
       x2="85.453499"
       y2="27.798599"
       gradientUnits="userSpaceOnUse">
      <stop
         stop-color="#E4C29A"
         stop-opacity="0.9"
         id="stop8" />
      <stop
         offset="1"
         stop-color="#CAA971"
         id="stop10" />
    </linearGradient>
  </defs>
</svg>
