<svg width="141" height="95" viewBox="0 0 141 95" fill="none" xmlns="http://www.w3.org/2000/svg">
<path d="M70.5275 26.5114C69.1019 23.8476 66.0181 22.8586 59.1372 22.8586C53.7266 22.8586 52.4668 22.6317 51.0378 21.4006L49.3457 19.9426L55.0799 20.3612C58.2338 20.5912 61.6206 20.9294 62.6061 21.1122C64.1646 21.4014 64.229 21.3422 63.101 20.6583C62.3876 20.2261 57.991 19.6045 53.3307 19.2775C45.256 18.7108 40.3861 17.3714 40.3861 15.7172C40.3861 15.3578 41.4344 15.2059 42.7156 15.3796C43.9969 15.5529 47.952 15.9917 51.5047 16.3544C55.0575 16.7173 59.3994 17.5082 61.1533 18.1125C65.5603 19.6308 65.5632 19.0814 61.1583 17.1865C57.4969 15.6113 48.8414 14.2762 42.178 14.2586C37.116 14.2434 33.506 13.0761 30.8506 10.5899L28.5593 8.44457L30.7096 8.85101C31.8922 9.07444 37.6981 9.87558 43.6116 10.6311C55.1279 12.1026 59.1504 13.2185 63.6815 16.199C65.4529 17.3643 66.1549 17.6061 65.5185 16.832C64.2463 15.2848 58.9164 12.5423 55.0801 11.4612C53.5032 11.0168 47.8585 10.1681 42.5364 9.57536C31.5079 8.34696 26.3915 6.37045 23.2257 2.11539C21.764 0.15086 21.6506 -0.252443 22.6675 0.130137C23.8065 0.558307 28.2435 1.20678 45.8772 3.52102C58.9891 5.24179 67.4286 12.0173 70.7856 23.5182C71.982 27.617 71.8621 29.0052 70.5275 26.5114ZM74.7914 27.7706C74.7914 26.5394 77.9304 18.5784 79.4142 16.0465C82.8222 10.2312 89.0974 5.91534 96.5837 4.23809C98.1989 3.87615 103.875 3.0698 109.197 2.44595C114.519 1.82214 120.155 1.01681 121.721 0.656276C123.286 0.295836 124.713 0.146213 124.891 0.324153C125.069 0.502093 123.776 2.025 122.018 3.70887C118.13 7.43476 115.33 8.3368 103.627 9.63369C98.7044 10.1792 93.0249 11.1072 91.0059 11.6959C87.6099 12.6862 80.5256 16.5942 80.5256 17.4774C80.5256 17.6888 81.7352 17.0634 83.2136 16.0875C87.5484 13.2262 91.6926 12.0894 103.104 10.6313C109.018 9.87578 114.743 9.06671 115.827 8.83346C120.546 7.81829 115.968 12.1353 110.982 13.4031C109.409 13.8029 104.451 14.3501 99.9642 14.6188C91.5154 15.1247 86.1894 16.291 83.7387 18.1718C82.4636 19.1504 82.6381 19.1532 85.4381 18.1971C87.1543 17.6123 91.5088 16.8063 95.1146 16.406C98.7205 16.0056 102.719 15.5396 104 15.3703C105.282 15.2009 106.33 15.3551 106.33 15.7155C106.33 17.3476 101.469 18.691 93.3276 19.3089C88.6111 19.6668 84.2043 20.3045 83.5349 20.7257C82.4575 21.4036 82.4823 21.4529 83.7512 21.1549C86.2071 20.5785 97.7284 19.8394 97.7284 20.2582C97.7284 21.5103 93.6113 22.5252 87.1856 22.8568C80.0333 23.2258 79.811 23.29 77.3298 25.6948C75.9337 27.048 74.7914 27.9811 74.7914 27.7684V27.7706Z" fill="white"/>
<path d="M11.8916 51.7891C12.3962 51.7891 12.6484 52.0088 12.6484 52.4482V67.3408C12.6484 67.7803 12.3962 68 11.8916 68H0.709961C0.237956 67.9349 0.00195312 67.7152 0.00195312 67.3408V35.041C0.00195312 34.6829 0.237956 34.4714 0.709961 34.4062H11.5498C12.0544 34.4062 12.3066 34.6178 12.3066 35.041V43.2441C12.3066 43.6836 12.0544 43.9033 11.5498 43.9033H8.5957C7.39128 43.9033 6.34147 44.2695 5.44629 45.002C4.51855 45.7344 4.05469 46.6865 4.05469 47.8584C4.05469 49.014 4.51855 49.958 5.44629 50.6904C6.34147 51.4229 7.39128 51.7891 8.5957 51.7891H11.8916ZM4.05469 66.0957C4.05469 66.4701 4.28255 66.6898 4.73828 66.7549H7.83887C8.34342 66.7549 8.5957 66.5352 8.5957 66.0957V53.6934C8.5957 53.2702 8.34342 53.0586 7.83887 53.0586C6.43913 53.0586 5.17773 52.4889 4.05469 51.3496V66.0957ZM7.83887 42.6094C8.34342 42.6094 8.5957 42.3896 8.5957 41.9502V36.3105C8.5957 35.8711 8.34342 35.6514 7.83887 35.6514H4.73828C4.28255 35.7165 4.05469 35.9362 4.05469 36.3105V44.2939C5.11263 43.1709 6.37402 42.6094 7.83887 42.6094Z" fill="white"/>
<path d="M25.3877 68.293C24.3298 68.293 23.402 68.0651 22.6045 67.6094C21.6605 67.0397 21.1885 66.2503 21.1885 65.2412C21.1885 64.639 21.4245 64.11 21.8965 63.6543C22.3359 63.1823 22.873 62.9463 23.5078 62.9463C24.1426 62.9463 24.696 63.1579 25.168 63.5811C25.6562 63.988 25.9004 64.5088 25.9004 65.1436C25.9004 65.9736 25.6156 66.641 25.0459 67.1455H25.5586C26.3236 66.6084 26.7061 65.7946 26.7061 64.7041C26.7061 63.874 26.2178 62.3197 25.2412 60.041C24.0531 57.209 23.1904 54.9466 22.6533 53.2539C21.6768 50.1452 21.1885 47.1911 21.1885 44.3916C21.1885 37.1976 23.2881 33.6006 27.4873 33.6006C31.7028 33.6006 33.8105 36.7988 33.8105 43.1953C33.8105 43.6673 33.5745 43.9033 33.1025 43.9033H30.4902C30.0345 43.9033 29.8066 43.6673 29.8066 43.1953C29.8066 37.873 29.0335 35.2119 27.4873 35.2119C25.9899 35.2119 25.2412 38.2718 25.2412 44.3916C25.2412 44.9613 25.347 46.2959 25.5586 48.3955C25.8841 47.598 26.4456 46.9551 27.2432 46.4668C28.0407 45.9622 28.8952 45.71 29.8066 45.71C31.0273 45.71 32.012 46.1413 32.7607 47.0039C33.4606 47.8991 33.8105 48.9814 33.8105 50.251V52.5459C33.8105 53.0179 33.5745 53.2539 33.1025 53.2539H30.4902C30.0345 53.2539 29.8066 53.0179 29.8066 52.5459V50.7393C29.8066 50.2184 29.6195 49.7708 29.2451 49.3965C28.887 49.0384 28.4395 48.8594 27.9023 48.8594C26.6654 48.8594 26.0469 49.486 26.0469 50.7393C26.0469 51.6833 26.4131 53.4818 27.1455 56.1348C27.8779 58.7715 28.2441 60.7897 28.2441 62.1895C28.2441 64.5332 27.6257 66.1527 26.3887 67.0479C28.1302 66.348 29.2044 64.8994 29.6113 62.7021C29.7415 61.9372 29.8066 59.7887 29.8066 56.2568C29.8066 55.7523 30.0345 55.5 30.4902 55.5H33.1025C33.5745 55.5 33.8105 55.7523 33.8105 56.2568C33.8105 58.7145 33.0374 61.2454 31.4912 63.8496C29.7334 66.8118 27.6989 68.293 25.3877 68.293Z" fill="white"/>
<path d="M50.7734 51.0078V35.041C50.7734 34.6829 51.0013 34.4714 51.457 34.4062H54.0693C54.5739 34.4062 54.8262 34.6178 54.8262 35.041V67.3408C54.8262 67.7803 54.5739 68 54.0693 68H51.457C51.0013 67.9349 50.7734 67.7152 50.7734 67.3408V54.5479C50.7734 53.376 50.3096 52.4238 49.3818 51.6914C48.4704 50.959 47.4124 50.5928 46.208 50.5928H42.8633C42.3913 50.5277 42.1553 50.3161 42.1553 49.958V35.041C42.1553 34.6829 42.3913 34.4714 42.8633 34.4062H45.4756C45.9639 34.4062 46.208 34.6178 46.208 35.041V48.6885C46.208 49.0628 46.444 49.2826 46.916 49.3477C48.3809 49.3477 49.6667 49.901 50.7734 51.0078Z" fill="white"/>
<path d="M67.5654 68.293C66.5075 68.293 65.5798 68.0651 64.7822 67.6094C63.8382 67.0397 63.3662 66.2503 63.3662 65.2412C63.3662 64.639 63.6022 64.11 64.0742 63.6543C64.5137 63.1823 65.0508 62.9463 65.6855 62.9463C66.3203 62.9463 66.8737 63.1579 67.3457 63.5811C67.834 63.988 68.0781 64.5088 68.0781 65.1436C68.0781 65.9736 67.7933 66.641 67.2236 67.1455H67.7363C68.5013 66.6084 68.8838 65.7946 68.8838 64.7041C68.8838 63.874 68.3955 62.3197 67.4189 60.041C66.2308 57.209 65.3682 54.9466 64.8311 53.2539C63.8545 50.1452 63.3662 47.1911 63.3662 44.3916C63.3662 37.1976 65.4658 33.6006 69.665 33.6006C73.8805 33.6006 75.9883 36.7988 75.9883 43.1953C75.9883 43.6673 75.7523 43.9033 75.2803 43.9033H72.668C72.2122 43.9033 71.9844 43.6673 71.9844 43.1953C71.9844 37.873 71.2113 35.2119 69.665 35.2119C68.1676 35.2119 67.4189 38.2718 67.4189 44.3916C67.4189 44.9613 67.5247 46.2959 67.7363 48.3955C68.0618 47.598 68.6234 46.9551 69.4209 46.4668C70.2184 45.9622 71.0729 45.71 71.9844 45.71C73.2051 45.71 74.1898 46.1413 74.9385 47.0039C75.6383 47.8991 75.9883 48.9814 75.9883 50.251V52.5459C75.9883 53.0179 75.7523 53.2539 75.2803 53.2539H72.668C72.2122 53.2539 71.9844 53.0179 71.9844 52.5459V50.7393C71.9844 50.2184 71.7972 49.7708 71.4229 49.3965C71.0648 49.0384 70.6172 48.8594 70.0801 48.8594C68.8431 48.8594 68.2246 49.486 68.2246 50.7393C68.2246 51.6833 68.5908 53.4818 69.3232 56.1348C70.0557 58.7715 70.4219 60.7897 70.4219 62.1895C70.4219 64.5332 69.8034 66.1527 68.5664 67.0479C70.3079 66.348 71.3822 64.8994 71.7891 62.7021C71.9193 61.9372 71.9844 59.7887 71.9844 56.2568C71.9844 55.7523 72.2122 55.5 72.668 55.5H75.2803C75.7523 55.5 75.9883 55.7523 75.9883 56.2568C75.9883 58.7145 75.2152 61.2454 73.6689 63.8496C71.9111 66.8118 69.8766 68.293 67.5654 68.293Z" fill="white"/>
<path d="M97.541 49.958C97.541 50.3812 97.2887 50.5928 96.7842 50.5928H93.4395C92.235 50.5928 91.1852 50.959 90.29 51.6914C89.3623 52.4238 88.8984 53.376 88.8984 54.5479V67.3408C88.8984 67.7803 88.6462 68 88.1416 68H85.5537C85.0817 67.9349 84.8457 67.7152 84.8457 67.3408V35.041C84.8457 34.6829 85.0817 34.4714 85.5537 34.4062H96.7842C97.2887 34.4062 97.541 34.6178 97.541 35.041V49.958ZM92.6826 49.3477C93.1872 49.3477 93.4395 49.1279 93.4395 48.6885V36.3105C93.4395 35.8711 93.1872 35.6514 92.6826 35.6514H89.582C89.1263 35.7165 88.8984 35.9362 88.8984 36.3105V51.0078C89.9238 49.901 91.1852 49.3477 92.6826 49.3477Z" fill="white"/>
<path d="M114.65 46.1494L110.915 53.498C110.378 54.5397 110.109 55.4756 110.109 56.3057V67.3408C110.109 67.7803 109.857 68 109.353 68H106.765C106.293 67.9349 106.057 67.7152 106.057 67.3408V35.041C106.057 34.6829 106.293 34.4714 106.765 34.4062H109.353C109.857 34.4062 110.109 34.6178 110.109 35.041V52.2041L113.796 44.5381C114.366 43.3825 114.65 42.4548 114.65 41.7549V35.041C114.65 34.6829 114.886 34.4714 115.358 34.4062H117.946C118.451 34.4062 118.703 34.6178 118.703 35.041V67.3408C118.703 67.7803 118.451 68 117.946 68H115.358C114.886 67.9349 114.65 67.7152 114.65 67.3408V46.1494Z" fill="white"/>
<path d="M132.297 45.8564C133.794 45.8564 135.064 46.4017 136.105 47.4922V36.3105C136.105 35.9362 135.869 35.7165 135.397 35.6514H132.297C131.809 35.6514 131.564 35.8711 131.564 36.3105V45.1973C131.564 45.6367 131.809 45.8564 132.297 45.8564ZM136.105 52.4482C134.478 52.9202 133.241 55.0036 132.395 58.6982C131.841 61.2699 131.564 64.1182 131.564 67.2432C131.564 67.7477 131.328 68 130.856 68H128.195C127.74 68 127.512 67.7477 127.512 67.2432C127.512 64.0205 128.195 60.806 129.562 57.5996C131.223 53.6934 133.404 51.4961 136.105 51.0078C136.105 49.8359 135.658 48.8838 134.763 48.1514C133.819 47.4515 132.753 47.1016 131.564 47.1016H128.195C127.707 47.1016 127.463 46.8818 127.463 46.4424V35.041C127.463 34.6178 127.707 34.4062 128.195 34.4062H139.45C139.922 34.4714 140.158 34.6829 140.158 35.041V67.3408C140.158 67.7152 139.922 67.9349 139.45 68H136.862C136.358 68 136.105 67.7803 136.105 67.3408V52.4482Z" fill="white"/>
<path d="M5.8485 77.84H3.1965V83H2.2365V77H6.8085V83H5.8485V77.84Z" fill="white"/>
<path d="M8.65837 77H9.31837L9.49837 77.72H9.54638C9.73038 77.44 9.96638 77.228 10.2544 77.084C10.5504 76.932 10.8864 76.856 11.2624 76.856C12.0624 76.856 12.6584 77.092 13.0504 77.564C13.4424 78.036 13.6384 78.808 13.6384 79.88C13.6384 80.384 13.5704 80.84 13.4344 81.248C13.3064 81.648 13.1224 81.988 12.8824 82.268C12.6424 82.548 12.3504 82.764 12.0064 82.916C11.6704 83.068 11.2944 83.144 10.8784 83.144C10.5824 83.144 10.3464 83.124 10.1704 83.084C10.0024 83.052 9.81837 82.992 9.61837 82.904V85.4H8.65837V77ZM11.0824 77.696C10.6744 77.696 10.3504 77.804 10.1104 78.02C9.87838 78.228 9.71437 78.548 9.61837 78.98V81.956C9.76237 82.068 9.92638 82.156 10.1104 82.22C10.2944 82.276 10.5384 82.304 10.8424 82.304C11.3944 82.304 11.8304 82.1 12.1504 81.692C12.4784 81.276 12.6424 80.668 12.6424 79.868C12.6424 79.54 12.6144 79.244 12.5584 78.98C12.5024 78.708 12.4104 78.48 12.2824 78.296C12.1624 78.104 12.0024 77.956 11.8024 77.852C11.6104 77.748 11.3704 77.696 11.0824 77.696Z" fill="white"/>
<path d="M15.0546 77.444C15.3586 77.26 15.7106 77.124 16.1106 77.036C16.5186 76.948 16.9426 76.904 17.3826 76.904C17.7986 76.904 18.1306 76.96 18.3786 77.072C18.6346 77.184 18.8266 77.332 18.9546 77.516C19.0906 77.692 19.1786 77.888 19.2186 78.104C19.2666 78.32 19.2906 78.536 19.2906 78.752C19.2906 79.232 19.2786 79.7 19.2546 80.156C19.2306 80.612 19.2186 81.044 19.2186 81.452C19.2186 81.748 19.2306 82.028 19.2546 82.292C19.2786 82.556 19.3226 82.8 19.3866 83.024H18.6786L18.4266 82.184H18.3666C18.2946 82.296 18.2026 82.408 18.0906 82.52C17.9866 82.624 17.8586 82.72 17.7066 82.808C17.5546 82.888 17.3786 82.956 17.1786 83.012C16.9786 83.068 16.7506 83.096 16.4946 83.096C16.2386 83.096 15.9986 83.056 15.7746 82.976C15.5586 82.896 15.3706 82.784 15.2106 82.64C15.0506 82.488 14.9226 82.308 14.8266 82.1C14.7386 81.892 14.6946 81.656 14.6946 81.392C14.6946 81.04 14.7666 80.748 14.9106 80.516C15.0546 80.276 15.2546 80.088 15.5106 79.952C15.7746 79.808 16.0866 79.708 16.4466 79.652C16.8146 79.588 17.2186 79.556 17.6586 79.556C17.7706 79.556 17.8786 79.556 17.9826 79.556C18.0946 79.556 18.2066 79.564 18.3186 79.58C18.3426 79.34 18.3546 79.124 18.3546 78.932C18.3546 78.492 18.2666 78.184 18.0906 78.008C17.9146 77.832 17.5946 77.744 17.1306 77.744C16.9946 77.744 16.8466 77.756 16.6866 77.78C16.5346 77.796 16.3746 77.824 16.2066 77.864C16.0466 77.896 15.8906 77.94 15.7386 77.996C15.5946 78.044 15.4666 78.1 15.3546 78.164L15.0546 77.444ZM16.7586 82.256C16.9826 82.256 17.1826 82.228 17.3586 82.172C17.5346 82.108 17.6866 82.032 17.8146 81.944C17.9426 81.848 18.0466 81.744 18.1266 81.632C18.2146 81.52 18.2786 81.412 18.3186 81.308V80.312C18.2066 80.304 18.0906 80.3 17.9706 80.3C17.8586 80.292 17.7466 80.288 17.6346 80.288C17.3866 80.288 17.1426 80.304 16.9026 80.336C16.6706 80.36 16.4626 80.412 16.2786 80.492C16.1026 80.564 15.9586 80.668 15.8466 80.804C15.7426 80.932 15.6906 81.096 15.6906 81.296C15.6906 81.576 15.7906 81.808 15.9906 81.992C16.1906 82.168 16.4466 82.256 16.7586 82.256Z" fill="white"/>
<path d="M21.1037 77.012C21.3837 76.996 21.6757 76.976 21.9797 76.952C22.2917 76.928 22.6757 76.916 23.1317 76.916C23.9237 76.916 24.4917 77.04 24.8357 77.288C25.1797 77.528 25.3517 77.896 25.3517 78.392C25.3517 78.672 25.2677 78.948 25.0997 79.22C24.9397 79.484 24.6717 79.68 24.2957 79.808V79.856C24.7677 79.944 25.0997 80.108 25.2917 80.348C25.4837 80.588 25.5797 80.908 25.5797 81.308C25.5797 81.932 25.3557 82.384 24.9077 82.664C24.4597 82.944 23.7877 83.084 22.8917 83.084C22.5557 83.084 22.2437 83.072 21.9557 83.048C21.6677 83.032 21.3837 83.012 21.1037 82.988V77.012ZM22.0637 82.196C22.2157 82.212 22.3637 82.224 22.5077 82.232C22.6597 82.24 22.8357 82.244 23.0357 82.244C23.5717 82.244 23.9677 82.168 24.2237 82.016C24.4877 81.864 24.6197 81.604 24.6197 81.236C24.6197 80.948 24.5077 80.716 24.2837 80.54C24.0677 80.356 23.6797 80.264 23.1197 80.264H22.0637V82.196ZM23.2397 79.532C23.3837 79.532 23.5237 79.508 23.6597 79.46C23.7957 79.412 23.9157 79.348 24.0197 79.268C24.1317 79.18 24.2197 79.08 24.2837 78.968C24.3557 78.856 24.3917 78.736 24.3917 78.608C24.3917 78.288 24.2957 78.068 24.1037 77.948C23.9117 77.82 23.5757 77.756 23.0957 77.756C22.8397 77.756 22.6357 77.76 22.4837 77.768C22.3397 77.776 22.1997 77.784 22.0637 77.792V79.532H23.2397Z" fill="white"/>
<path d="M26.756 80C26.756 78.984 26.98 78.208 27.428 77.672C27.884 77.128 28.536 76.856 29.384 76.856C29.832 76.856 30.22 76.932 30.548 77.084C30.884 77.228 31.16 77.44 31.376 77.72C31.592 77.992 31.752 78.324 31.856 78.716C31.96 79.1 32.012 79.528 32.012 80C32.012 81.016 31.784 81.796 31.328 82.34C30.88 82.876 30.232 83.144 29.384 83.144C28.936 83.144 28.544 83.072 28.208 82.928C27.88 82.776 27.608 82.564 27.392 82.292C27.176 82.012 27.016 81.68 26.912 81.296C26.808 80.904 26.756 80.472 26.756 80ZM27.752 80C27.752 80.304 27.78 80.596 27.836 80.876C27.9 81.156 27.996 81.4 28.124 81.608C28.252 81.816 28.42 81.984 28.628 82.112C28.836 82.24 29.088 82.304 29.384 82.304C30.472 82.312 31.016 81.544 31.016 80C31.016 79.688 30.984 79.392 30.92 79.112C30.864 78.832 30.772 78.588 30.644 78.38C30.516 78.172 30.348 78.008 30.14 77.888C29.932 77.76 29.68 77.696 29.384 77.696C28.296 77.688 27.752 78.456 27.752 80Z" fill="white"/>
<path d="M37.6176 82.604C37.3776 82.78 37.0936 82.912 36.7656 83C36.4376 83.096 36.0936 83.144 35.7336 83.144C35.2696 83.144 34.8776 83.072 34.5576 82.928C34.2376 82.776 33.9736 82.564 33.7656 82.292C33.5656 82.012 33.4176 81.68 33.3216 81.296C33.2336 80.904 33.1896 80.472 33.1896 80C33.1896 78.984 33.4136 78.208 33.8616 77.672C34.3096 77.128 34.9536 76.856 35.7936 76.856C36.1776 76.856 36.5016 76.888 36.7656 76.952C37.0376 77.008 37.2816 77.092 37.4976 77.204L37.2216 78.032C37.0376 77.928 36.8336 77.848 36.6096 77.792C36.3856 77.728 36.1456 77.696 35.8896 77.696C34.7536 77.696 34.1856 78.464 34.1856 80C34.1856 80.304 34.2136 80.596 34.2696 80.876C34.3336 81.148 34.4336 81.392 34.5696 81.608C34.7136 81.816 34.8976 81.984 35.1216 82.112C35.3536 82.24 35.6376 82.304 35.9736 82.304C36.2616 82.304 36.5176 82.26 36.7416 82.172C36.9736 82.084 37.1616 81.984 37.3056 81.872L37.6176 82.604Z" fill="white"/>
<path d="M42.1559 77.84H40.4159C40.3919 78.176 40.3679 78.54 40.3439 78.932C40.3199 79.316 40.2839 79.704 40.2359 80.096C40.1879 80.48 40.1239 80.852 40.0439 81.212C39.9639 81.564 39.8599 81.876 39.7319 82.148C39.6119 82.42 39.4599 82.64 39.2759 82.808C39.0999 82.968 38.8879 83.048 38.6399 83.048C38.4879 83.048 38.3559 83.04 38.2439 83.024C38.1319 83.008 38.0319 82.98 37.9439 82.94L38.0879 82.136C38.1839 82.168 38.2879 82.184 38.3999 82.184C38.5599 82.184 38.7039 82.116 38.8319 81.98C38.9599 81.844 39.0719 81.588 39.1679 81.212C39.2639 80.828 39.3439 80.3 39.4079 79.628C39.4719 78.956 39.5159 78.08 39.5399 77H43.1159V83H42.1559V77.84Z" fill="white"/>
<path d="M44.8671 77.444C45.1711 77.26 45.5231 77.124 45.9231 77.036C46.3311 76.948 46.7551 76.904 47.1951 76.904C47.6111 76.904 47.9431 76.96 48.1911 77.072C48.4471 77.184 48.6391 77.332 48.7671 77.516C48.9031 77.692 48.9911 77.888 49.0311 78.104C49.0791 78.32 49.1031 78.536 49.1031 78.752C49.1031 79.232 49.0911 79.7 49.0671 80.156C49.0431 80.612 49.0311 81.044 49.0311 81.452C49.0311 81.748 49.0431 82.028 49.0671 82.292C49.0911 82.556 49.1351 82.8 49.1991 83.024H48.4911L48.2391 82.184H48.1791C48.1071 82.296 48.0151 82.408 47.9031 82.52C47.7991 82.624 47.6711 82.72 47.5191 82.808C47.3671 82.888 47.1911 82.956 46.9911 83.012C46.7911 83.068 46.5631 83.096 46.3071 83.096C46.0511 83.096 45.8111 83.056 45.5871 82.976C45.3711 82.896 45.1831 82.784 45.0231 82.64C44.8631 82.488 44.7351 82.308 44.6391 82.1C44.5511 81.892 44.5071 81.656 44.5071 81.392C44.5071 81.04 44.5791 80.748 44.7231 80.516C44.8671 80.276 45.0671 80.088 45.3231 79.952C45.5871 79.808 45.8991 79.708 46.2591 79.652C46.6271 79.588 47.0311 79.556 47.4711 79.556C47.5831 79.556 47.6911 79.556 47.7951 79.556C47.9071 79.556 48.0191 79.564 48.1311 79.58C48.1551 79.34 48.1671 79.124 48.1671 78.932C48.1671 78.492 48.0791 78.184 47.9031 78.008C47.7271 77.832 47.4071 77.744 46.9431 77.744C46.8071 77.744 46.6591 77.756 46.4991 77.78C46.3471 77.796 46.1871 77.824 46.0191 77.864C45.8591 77.896 45.7031 77.94 45.5511 77.996C45.4071 78.044 45.2791 78.1 45.1671 78.164L44.8671 77.444ZM46.5711 82.256C46.7951 82.256 46.9951 82.228 47.1711 82.172C47.3471 82.108 47.4991 82.032 47.6271 81.944C47.7551 81.848 47.8591 81.744 47.9391 81.632C48.0271 81.52 48.0911 81.412 48.1311 81.308V80.312C48.0191 80.304 47.9031 80.3 47.7831 80.3C47.6711 80.292 47.5591 80.288 47.4471 80.288C47.1991 80.288 46.9551 80.304 46.7151 80.336C46.4831 80.36 46.2751 80.412 46.0911 80.492C45.9151 80.564 45.7711 80.668 45.6591 80.804C45.5551 80.932 45.5031 81.096 45.5031 81.296C45.5031 81.576 45.6031 81.808 45.8031 81.992C46.0031 82.168 46.2591 82.256 46.5711 82.256Z" fill="white"/>
<path d="M50.9162 77.012C51.1962 76.996 51.4882 76.976 51.7922 76.952C52.1042 76.928 52.4882 76.916 52.9442 76.916C53.7362 76.916 54.3042 77.04 54.6482 77.288C54.9922 77.528 55.1642 77.896 55.1642 78.392C55.1642 78.672 55.0802 78.948 54.9122 79.22C54.7522 79.484 54.4842 79.68 54.1082 79.808V79.856C54.5802 79.944 54.9122 80.108 55.1042 80.348C55.2962 80.588 55.3922 80.908 55.3922 81.308C55.3922 81.932 55.1682 82.384 54.7202 82.664C54.2722 82.944 53.6002 83.084 52.7042 83.084C52.3682 83.084 52.0562 83.072 51.7682 83.048C51.4802 83.032 51.1962 83.012 50.9162 82.988V77.012ZM51.8762 82.196C52.0282 82.212 52.1762 82.224 52.3202 82.232C52.4722 82.24 52.6482 82.244 52.8482 82.244C53.3842 82.244 53.7802 82.168 54.0362 82.016C54.3002 81.864 54.4322 81.604 54.4322 81.236C54.4322 80.948 54.3202 80.716 54.0962 80.54C53.8802 80.356 53.4922 80.264 52.9322 80.264H51.8762V82.196ZM53.0522 79.532C53.1962 79.532 53.3362 79.508 53.4722 79.46C53.6082 79.412 53.7282 79.348 53.8322 79.268C53.9442 79.18 54.0322 79.08 54.0962 78.968C54.1682 78.856 54.2042 78.736 54.2042 78.608C54.2042 78.288 54.1082 78.068 53.9162 77.948C53.7242 77.82 53.3882 77.756 52.9082 77.756C52.6522 77.756 52.4482 77.76 52.2962 77.768C52.1522 77.776 52.0122 77.784 51.8762 77.792V79.532H53.0522Z" fill="white"/>
<path d="M60.5765 80.348H57.8645V83H56.9045V77H57.8645V79.508H60.5765V77H61.5365V83H60.5765V80.348Z" fill="white"/>
<path d="M64.3449 82.16C64.6409 82.208 64.9249 82.232 65.1969 82.232C65.7009 82.232 66.0529 82.136 66.2529 81.944C66.4529 81.744 66.5529 81.464 66.5529 81.104C66.5529 80.784 66.4529 80.52 66.2529 80.312C66.0609 80.104 65.7209 80 65.2329 80C65.0969 80 64.9489 80.004 64.7889 80.012C64.6289 80.02 64.4809 80.044 64.3449 80.084V82.16ZM64.3449 79.292C64.5369 79.26 64.7209 79.24 64.8969 79.232C65.0729 79.216 65.2409 79.208 65.4009 79.208C65.8089 79.208 66.1489 79.256 66.4209 79.352C66.7009 79.44 66.9249 79.564 67.0929 79.724C67.2609 79.884 67.3769 80.076 67.4409 80.3C67.5129 80.516 67.5489 80.748 67.5489 80.996C67.5489 81.724 67.3449 82.252 66.9369 82.58C66.5369 82.908 65.8849 83.072 64.9809 83.072C64.4689 83.072 63.9369 83.048 63.3849 83V77H64.3449V79.292ZM68.4969 77H69.4569V83H68.4969V77Z" fill="white"/>
<path d="M75.6868 82.52C75.4468 82.712 75.1428 82.864 74.7748 82.976C74.4148 83.088 74.0308 83.144 73.6228 83.144C73.1668 83.144 72.7708 83.072 72.4348 82.928C72.0988 82.776 71.8228 82.564 71.6068 82.292C71.3908 82.012 71.2308 81.68 71.1268 81.296C71.0228 80.912 70.9708 80.48 70.9708 80C70.9708 78.976 71.1988 78.196 71.6548 77.66C72.1108 77.124 72.7628 76.856 73.6108 76.856C73.8828 76.856 74.1548 76.888 74.4268 76.952C74.6988 77.008 74.9428 77.12 75.1588 77.288C75.3748 77.456 75.5508 77.696 75.6868 78.008C75.8228 78.312 75.8908 78.716 75.8908 79.22C75.8908 79.484 75.8668 79.776 75.8188 80.096H71.9668C71.9668 80.448 72.0028 80.76 72.0748 81.032C72.1468 81.304 72.2588 81.536 72.4108 81.728C72.5628 81.912 72.7588 82.056 72.9988 82.16C73.2468 82.256 73.5468 82.304 73.8988 82.304C74.1708 82.304 74.4428 82.256 74.7148 82.16C74.9868 82.064 75.1908 81.952 75.3268 81.824L75.6868 82.52ZM73.6228 77.696C73.1508 77.696 72.7708 77.82 72.4828 78.068C72.2028 78.316 72.0348 78.74 71.9788 79.34H74.9548C74.9548 78.732 74.8388 78.308 74.6068 78.068C74.3748 77.82 74.0468 77.696 73.6228 77.696Z" fill="white"/>
<path d="M85.2558 83.144C84.8238 83.144 84.4518 83.08 84.1398 82.952C83.8358 82.816 83.5838 82.628 83.3838 82.388C83.1918 82.14 83.0438 81.844 82.9398 81.5C82.8438 81.148 82.7838 80.764 82.7598 80.348H81.5598V83H80.5998V77H81.5598V79.508H82.7718C82.8358 78.652 83.0678 77.996 83.4678 77.54C83.8758 77.084 84.4798 76.856 85.2798 76.856C85.7198 76.856 86.0918 76.932 86.3958 77.084C86.7078 77.228 86.9598 77.44 87.1518 77.72C87.3518 77.992 87.4958 78.324 87.5838 78.716C87.6718 79.1 87.7158 79.528 87.7158 80C87.7158 81.016 87.5118 81.796 87.1038 82.34C86.7038 82.876 86.0878 83.144 85.2558 83.144ZM83.7078 80C83.7078 80.312 83.7318 80.608 83.7798 80.888C83.8278 81.168 83.9118 81.416 84.0318 81.632C84.1518 81.84 84.3118 82.004 84.5118 82.124C84.7198 82.244 84.9758 82.304 85.2798 82.304C85.7918 82.304 86.1598 82.12 86.3838 81.752C86.6078 81.376 86.7198 80.792 86.7198 80C86.7198 79.688 86.6958 79.392 86.6478 79.112C86.6078 78.832 86.5318 78.588 86.4198 78.38C86.3078 78.164 86.1598 77.996 85.9758 77.876C85.7918 77.756 85.5558 77.696 85.2678 77.696C84.7158 77.696 84.3158 77.884 84.0678 78.26C83.8278 78.628 83.7078 79.208 83.7078 80Z" fill="white"/>
<path d="M89.2248 77.012C89.5048 76.996 89.7968 76.976 90.1008 76.952C90.4128 76.928 90.7968 76.916 91.2528 76.916C92.0448 76.916 92.6128 77.04 92.9568 77.288C93.3008 77.528 93.4728 77.896 93.4728 78.392C93.4728 78.672 93.3888 78.948 93.2208 79.22C93.0608 79.484 92.7928 79.68 92.4168 79.808V79.856C92.8888 79.944 93.2208 80.108 93.4128 80.348C93.6048 80.588 93.7008 80.908 93.7008 81.308C93.7008 81.932 93.4768 82.384 93.0288 82.664C92.5808 82.944 91.9088 83.084 91.0128 83.084C90.6768 83.084 90.3648 83.072 90.0768 83.048C89.7888 83.032 89.5048 83.012 89.2248 82.988V77.012ZM90.1848 82.196C90.3368 82.212 90.4848 82.224 90.6288 82.232C90.7808 82.24 90.9568 82.244 91.1568 82.244C91.6928 82.244 92.0888 82.168 92.3448 82.016C92.6088 81.864 92.7408 81.604 92.7408 81.236C92.7408 80.948 92.6288 80.716 92.4048 80.54C92.1888 80.356 91.8008 80.264 91.2408 80.264H90.1848V82.196ZM91.3608 79.532C91.5048 79.532 91.6448 79.508 91.7808 79.46C91.9168 79.412 92.0368 79.348 92.1408 79.268C92.2528 79.18 92.3408 79.08 92.4048 78.968C92.4768 78.856 92.5128 78.736 92.5128 78.608C92.5128 78.288 92.4168 78.068 92.2248 77.948C92.0328 77.82 91.6968 77.756 91.2168 77.756C90.9608 77.756 90.7568 77.76 90.6048 77.768C90.4608 77.776 90.3208 77.784 90.1848 77.792V79.532H91.3608Z" fill="white"/>
<path d="M99.5931 82.52C99.3531 82.712 99.0491 82.864 98.6811 82.976C98.3211 83.088 97.9371 83.144 97.5291 83.144C97.0731 83.144 96.6771 83.072 96.3411 82.928C96.0051 82.776 95.7291 82.564 95.5131 82.292C95.2971 82.012 95.1371 81.68 95.0331 81.296C94.9291 80.912 94.8771 80.48 94.8771 80C94.8771 78.976 95.1051 78.196 95.5611 77.66C96.0171 77.124 96.6691 76.856 97.5171 76.856C97.7891 76.856 98.0611 76.888 98.3331 76.952C98.6051 77.008 98.8491 77.12 99.0651 77.288C99.2811 77.456 99.4571 77.696 99.5931 78.008C99.7291 78.312 99.7971 78.716 99.7971 79.22C99.7971 79.484 99.7731 79.776 99.7251 80.096H95.8731C95.8731 80.448 95.9091 80.76 95.9811 81.032C96.0531 81.304 96.1651 81.536 96.3171 81.728C96.4691 81.912 96.6651 82.056 96.9051 82.16C97.1531 82.256 97.4531 82.304 97.8051 82.304C98.0771 82.304 98.3491 82.256 98.6211 82.16C98.8931 82.064 99.0971 81.952 99.2331 81.824L99.5931 82.52ZM97.5291 77.696C97.0571 77.696 96.6771 77.82 96.3891 78.068C96.1091 78.316 95.9411 78.74 95.8851 79.34H98.8611C98.8611 78.732 98.7451 78.308 98.5131 78.068C98.2811 77.82 97.9531 77.696 97.5291 77.696Z" fill="white"/>
<path d="M104.265 77.84H102.525C102.501 78.176 102.477 78.54 102.453 78.932C102.429 79.316 102.393 79.704 102.345 80.096C102.297 80.48 102.233 80.852 102.153 81.212C102.073 81.564 101.969 81.876 101.841 82.148C101.721 82.42 101.569 82.64 101.385 82.808C101.209 82.968 100.997 83.048 100.749 83.048C100.597 83.048 100.465 83.04 100.353 83.024C100.241 83.008 100.141 82.98 100.053 82.94L100.197 82.136C100.293 82.168 100.397 82.184 100.509 82.184C100.669 82.184 100.813 82.116 100.941 81.98C101.069 81.844 101.181 81.588 101.277 81.212C101.373 80.828 101.453 80.3 101.517 79.628C101.581 78.956 101.625 78.08 101.649 77H105.225V83H104.265V77.84Z" fill="white"/>
<path d="M110.816 79.448L110.852 78.704H110.816L110.324 79.472L107.624 83H107.072V77H108.032V80.66L107.996 81.368H108.044L108.512 80.624L111.212 77H111.776V83H110.816V79.448Z" fill="white"/>
<path d="M113.623 77H114.283L114.463 77.72H114.511C114.695 77.44 114.931 77.228 115.219 77.084C115.515 76.932 115.851 76.856 116.227 76.856C117.027 76.856 117.623 77.092 118.015 77.564C118.407 78.036 118.603 78.808 118.603 79.88C118.603 80.384 118.535 80.84 118.399 81.248C118.271 81.648 118.087 81.988 117.847 82.268C117.607 82.548 117.315 82.764 116.971 82.916C116.635 83.068 116.259 83.144 115.843 83.144C115.547 83.144 115.311 83.124 115.135 83.084C114.967 83.052 114.783 82.992 114.583 82.904V85.4H113.623V77ZM116.047 77.696C115.639 77.696 115.315 77.804 115.075 78.02C114.843 78.228 114.679 78.548 114.583 78.98V81.956C114.727 82.068 114.891 82.156 115.075 82.22C115.259 82.276 115.503 82.304 115.807 82.304C116.359 82.304 116.795 82.1 117.115 81.692C117.443 81.276 117.607 80.668 117.607 79.868C117.607 79.54 117.579 79.244 117.523 78.98C117.467 78.708 117.375 78.48 117.247 78.296C117.127 78.104 116.967 77.956 116.767 77.852C116.575 77.748 116.335 77.696 116.047 77.696Z" fill="white"/>
<path d="M123.787 80.348H121.075V83H120.115V77H121.075V79.508H123.787V77H124.747V83H123.787V80.348Z" fill="white"/>
<path d="M127.556 82.16C127.852 82.208 128.136 82.232 128.408 82.232C128.912 82.232 129.264 82.136 129.464 81.944C129.664 81.744 129.764 81.464 129.764 81.104C129.764 80.784 129.664 80.52 129.464 80.312C129.272 80.104 128.932 80 128.444 80C128.308 80 128.16 80.004 128 80.012C127.84 80.02 127.692 80.044 127.556 80.084V82.16ZM127.556 79.292C127.748 79.26 127.932 79.24 128.108 79.232C128.284 79.216 128.452 79.208 128.612 79.208C129.02 79.208 129.36 79.256 129.632 79.352C129.912 79.44 130.136 79.564 130.304 79.724C130.472 79.884 130.588 80.076 130.652 80.3C130.724 80.516 130.76 80.748 130.76 80.996C130.76 81.724 130.556 82.252 130.148 82.58C129.748 82.908 129.096 83.072 128.192 83.072C127.68 83.072 127.148 83.048 126.596 83V77H127.556V79.292ZM131.708 77H132.668V83H131.708V77Z" fill="white"/>
<path d="M138.898 82.52C138.658 82.712 138.354 82.864 137.986 82.976C137.626 83.088 137.242 83.144 136.834 83.144C136.378 83.144 135.982 83.072 135.646 82.928C135.31 82.776 135.034 82.564 134.818 82.292C134.602 82.012 134.442 81.68 134.338 81.296C134.234 80.912 134.182 80.48 134.182 80C134.182 78.976 134.41 78.196 134.866 77.66C135.322 77.124 135.974 76.856 136.822 76.856C137.094 76.856 137.366 76.888 137.638 76.952C137.91 77.008 138.154 77.12 138.37 77.288C138.586 77.456 138.762 77.696 138.898 78.008C139.034 78.312 139.102 78.716 139.102 79.22C139.102 79.484 139.078 79.776 139.03 80.096H135.178C135.178 80.448 135.214 80.76 135.286 81.032C135.358 81.304 135.47 81.536 135.622 81.728C135.774 81.912 135.97 82.056 136.21 82.16C136.458 82.256 136.758 82.304 137.11 82.304C137.382 82.304 137.654 82.256 137.926 82.16C138.198 82.064 138.402 81.952 138.538 81.824L138.898 82.52ZM136.834 77.696C136.362 77.696 135.982 77.82 135.694 78.068C135.414 78.316 135.246 78.74 135.19 79.34H138.166C138.166 78.732 138.05 78.308 137.818 78.068C137.586 77.82 137.258 77.696 136.834 77.696Z" fill="white"/>
<path d="M53.9453 89.448L53.9813 88.704H53.9453L53.4533 89.472L50.7533 93H50.2013V87H51.1613V90.66L51.1253 91.368H51.1733L51.6413 90.624L54.3413 87H54.9053V93H53.9453V89.448Z" fill="white"/>
<path d="M57.3281 90.324V89.544H58.1681C58.3121 89.544 58.4521 89.52 58.5881 89.472C58.7321 89.424 58.8601 89.36 58.9721 89.28C59.0841 89.192 59.1721 89.092 59.2361 88.98C59.3081 88.86 59.3441 88.736 59.3441 88.608C59.3441 88.296 59.2361 88.076 59.0201 87.948C58.8041 87.82 58.4801 87.756 58.0481 87.756C57.7361 87.756 57.4481 87.804 57.1841 87.9C56.9281 87.996 56.7281 88.088 56.5841 88.176L56.3081 87.432C56.5481 87.296 56.8281 87.176 57.1481 87.072C57.4761 86.968 57.8641 86.916 58.3121 86.916C59.6401 86.916 60.3041 87.408 60.3041 88.392C60.3041 88.672 60.2121 88.948 60.0281 89.22C59.8521 89.484 59.5961 89.672 59.2601 89.784V89.832C59.7321 89.92 60.0601 90.088 60.2441 90.336C60.4361 90.584 60.5321 90.912 60.5321 91.32C60.5321 91.576 60.4801 91.812 60.3761 92.028C60.2721 92.244 60.1161 92.432 59.9081 92.592C59.7001 92.752 59.4361 92.88 59.1161 92.976C58.8041 93.064 58.4401 93.108 58.0241 93.108C57.6161 93.108 57.2761 93.072 57.0041 93C56.7401 92.928 56.5001 92.84 56.2841 92.736L56.5601 91.944C56.7441 92.048 56.9641 92.128 57.2201 92.184C57.4841 92.24 57.7681 92.268 58.0721 92.268C58.5601 92.268 58.9321 92.184 59.1881 92.016C59.4441 91.848 59.5721 91.592 59.5721 91.248C59.5721 90.96 59.4521 90.736 59.2121 90.576C58.9721 90.408 58.5761 90.324 58.0241 90.324H57.3281Z" fill="white"/>
<path d="M67.353 94.524H66.705L66.525 93H62.013L61.833 94.524H61.185V92.16H61.893C61.957 92.072 62.041 91.916 62.145 91.692C62.249 91.46 62.349 91.14 62.445 90.732C62.549 90.316 62.637 89.804 62.709 89.196C62.789 88.58 62.837 87.848 62.853 87H66.477V92.16H67.353V94.524ZM65.517 92.16V87.84H63.717C63.701 88.176 63.673 88.544 63.633 88.944C63.593 89.336 63.537 89.732 63.465 90.132C63.401 90.524 63.317 90.896 63.213 91.248C63.109 91.6 62.989 91.904 62.853 92.16H65.517Z" fill="white"/>
<path d="M72.9212 92.52C72.6812 92.712 72.3772 92.864 72.0092 92.976C71.6492 93.088 71.2652 93.144 70.8572 93.144C70.4012 93.144 70.0052 93.072 69.6692 92.928C69.3332 92.776 69.0572 92.564 68.8412 92.292C68.6252 92.012 68.4652 91.68 68.3612 91.296C68.2572 90.912 68.2052 90.48 68.2052 90C68.2052 88.976 68.4332 88.196 68.8892 87.66C69.3452 87.124 69.9972 86.856 70.8452 86.856C71.1172 86.856 71.3892 86.888 71.6612 86.952C71.9332 87.008 72.1772 87.12 72.3932 87.288C72.6092 87.456 72.7852 87.696 72.9212 88.008C73.0572 88.312 73.1252 88.716 73.1252 89.22C73.1252 89.484 73.1012 89.776 73.0532 90.096H69.2012C69.2012 90.448 69.2372 90.76 69.3092 91.032C69.3812 91.304 69.4932 91.536 69.6452 91.728C69.7972 91.912 69.9932 92.056 70.2332 92.16C70.4812 92.256 70.7812 92.304 71.1332 92.304C71.4052 92.304 71.6772 92.256 71.9492 92.16C72.2212 92.064 72.4252 91.952 72.5612 91.824L72.9212 92.52ZM70.8572 87.696C70.3852 87.696 70.0052 87.82 69.7172 88.068C69.4372 88.316 69.2692 88.74 69.2132 89.34H72.1892C72.1892 88.732 72.0732 88.308 71.8412 88.068C71.6092 87.82 71.2812 87.696 70.8572 87.696Z" fill="white"/>
<path d="M77.5934 87.84H75.8534C75.8294 88.176 75.8054 88.54 75.7814 88.932C75.7574 89.316 75.7214 89.704 75.6734 90.096C75.6254 90.48 75.5614 90.852 75.4814 91.212C75.4014 91.564 75.2974 91.876 75.1694 92.148C75.0494 92.42 74.8974 92.64 74.7134 92.808C74.5374 92.968 74.3254 93.048 74.0774 93.048C73.9254 93.048 73.7934 93.04 73.6814 93.024C73.5694 93.008 73.4694 92.98 73.3814 92.94L73.5254 92.136C73.6214 92.168 73.7254 92.184 73.8374 92.184C73.9974 92.184 74.1414 92.116 74.2694 91.98C74.3974 91.844 74.5094 91.588 74.6054 91.212C74.7014 90.828 74.7814 90.3 74.8454 89.628C74.9094 88.956 74.9534 88.08 74.9774 87H78.5534V93H77.5934V87.84Z" fill="white"/>
<path d="M84.1446 89.448L84.1806 88.704H84.1446L83.6526 89.472L80.9526 93H80.4006V87H81.3606V90.66L81.3246 91.368H81.3726L81.8406 90.624L84.5406 87H85.1046V93H84.1446V89.448Z" fill="white"/>
<path d="M89.9393 90.516L89.0153 90.66L87.4313 93H86.2673L87.7073 90.948L88.1873 90.504C87.7713 90.44 87.4153 90.272 87.1193 90C86.8313 89.728 86.6873 89.36 86.6873 88.896C86.6873 88.536 86.7473 88.228 86.8673 87.972C86.9953 87.716 87.1753 87.504 87.4073 87.336C87.6393 87.168 87.9153 87.048 88.2353 86.976C88.5553 86.896 88.9153 86.856 89.3153 86.856C89.6113 86.856 89.8873 86.876 90.1433 86.916C90.3993 86.956 90.6513 87 90.8993 87.048V93H89.9393V90.516ZM89.9393 87.816C89.8353 87.776 89.7193 87.748 89.5913 87.732C89.4633 87.708 89.3513 87.696 89.2553 87.696C88.7433 87.696 88.3513 87.788 88.0793 87.972C87.8153 88.156 87.6833 88.448 87.6833 88.848C87.6833 89.208 87.8233 89.488 88.1033 89.688C88.3913 89.88 88.7673 89.976 89.2313 89.976C89.2393 89.976 89.2513 89.976 89.2673 89.976C89.2833 89.976 89.3153 89.976 89.3633 89.976C89.4113 89.976 89.4793 89.976 89.5673 89.976C89.6553 89.968 89.7793 89.96 89.9393 89.952V87.816Z" fill="white"/>
</svg>
